<svg xmlns="http://www.w3.org/2000/svg" xmlns:xlink="http://www.w3.org/1999/xlink" viewBox="0 0 744.45 99.23"><defs><clipPath id="a45eda6c-ce0b-4d58-8ab2-d015c178f9ef"><path d="M57.16,15.22c-1.63-.56-11.71-4-14.61-4.89S27.67,5.47,27.67,5.47a4.28,4.28,0,0,1-1.35-.29c-.78-.29-1.19-.35-1.27-.66a.69.69,0,0,1,0-.5.74.74,0,0,1,.26-.44c.25-.2.62,0,1.42.21A4.62,4.62,0,0,1,28,4.34S40.09,8.08,43,9.07,56,13.13,57.67,13.63s4.13,1,5.63,1.52S68,17.06,68,17.06l14.93,4.8c.56.18.52.53.52.53l-.11.34,0,.05-.11.35s-.17.3-.73.12l-14.93-4.8s-3.38-.73-4.9-1.18S58.79,15.78,57.16,15.22Z" fill="#edd57e"/></clipPath><clipPath id="b7549908-b110-4dc6-8b46-58c29f61770e"><path d="M122.34,64.59c1.24,0,2.12,1.8,3,3.81a33.11,33.11,0,0,1,1.74,4.09,7.57,7.57,0,0,1,.16,1s.42,1-.25,1.23c.15.49,0,.8-.36.85.15.54-.49,1-.9.67a.6.6,0,0,1-1,.64.91.91,0,0,1-1.54-.25,6.71,6.71,0,0,1-.67-2c-.11-.83-.18-2.19-.34-3.07a20.26,20.26,0,0,0-1.49-3.7C120.39,67.19,122.34,64.59,122.34,64.59Z" fill="#f0d6b8"/></clipPath><clipPath id="a85e4982-6cab-4ba7-950f-12b0c14db77f"><path d="M106.21,37.61c6,4.93,17,17.9,22,25-.51,4.68-3.86,12.86-8,15.43-4.38,2.06-7.15-.72-8.39-2.31-2-1.63-5.43-10.48-8.39-18.27-2,8.44-8.59,21.25-8.59,21.25s-6.74.21-14.45-9.52c-.52-.62-.36-1.18.41-3.39s3.09-8,3.09-8-2.17-4.52-1.24-7.87,4.79-7,10-9.16C99.88,38.89,106.21,37.61,106.21,37.61Z" fill="#383761"/></clipPath><clipPath id="f13f4a78-f050-4d99-b005-a5d8c398a471"><path d="M105.18,29.63c0-3.3-1.13-10.13-3.49-11.42S98,17.44,97.57,16.1s-2.93-2.67-3.81-3.24-4.63-.46-4.88,1.85c.46,2,.1,2.32-1.75,2.21s-4.53-.36-4.53-.36l-5.3-2.11c-4.27.26-6.07.78-3.4,3.25s5.77,5.09,6.8,6.17.46,2.21,2.72,3.55a34.59,34.59,0,0,1,3.5,2.31,19.42,19.42,0,0,0,1.34,7c1.34,2.78,1.95,3.5,5.45,3.65s10.6-1.23,11.27-3.24S105.18,31.59,105.18,29.63Z" fill="#383761"/></clipPath><clipPath id="a3257feb-f207-491a-8983-3efcd08a3255"><path d="M74.62,12.4c2.17,1.39,4.43,4.47,4.58,5.4s-2.93,2.31-5.09.72c5.66,4.78,11.32,7.2,13.12,6.17,1.26-.72,15.53-4.05,15-6.48-.21-1-13.7-1.14-14.71-2.06C85.17,14,74.62,12.4,74.62,12.4Z" fill="#383761"/></clipPath><clipPath id="bdc68cd6-b3ae-4479-ba76-660cd5d63abe"><path d="M103.59,20.73c-2.54-1.16-7.15-.1-8.85.52a91.22,91.22,0,0,0-11.21-1c-2.83-.1-3,2.39.51,4.53A33.9,33.9,0,0,0,96.7,29.27a15.21,15.21,0,0,0,8-1.39c2.06-.72,2.16-1.8,2.06-3.81S104.82,21.3,103.59,20.73Z" fill="#383761"/></clipPath><clipPath id="b3efa607-6c01-44d1-8131-88a36c1169ad"><path d="M95.61,13.22c-.41,3.76-1.59,7-2.21,7.41s-3.75.31-4.16-.16c-.69-.77-.62-2.16-1.08-4.22A8.42,8.42,0,0,1,88,13l5.4-1.44Z" fill="#292854"/></clipPath><clipPath id="e26ed17e-4fef-4c67-9095-90fa8104cb99"><path d="M105.13,28.19c.78-.1,1.31.69,1.85,2.78a10.68,10.68,0,0,1,.44,4.9c-.21,1.16-1,4.36-8.1,5.8s-10-.2-10.91-2.42c-1.28-3.09-2.13-6-1.75-6.39.65-.59.81.46,1.51-.15s.72-1.95,2.31-1.59a13.24,13.24,0,0,0,7.08-.73,11.41,11.41,0,0,0,1.32,0,4.53,4.53,0,0,1,2.75,1.06c1.05.66,2.52.55,2.86-1C104.76,29.11,104.31,28.29,105.13,28.19Z" fill="#212121"/></clipPath><clipPath id="e2e85436-c2e7-4895-9173-d6ae2d233365"><path d="M70.42,14.88a5,5,0,0,0-2.12.19A3,3,0,0,0,67,16.16c-.22.34,1,1.24.89,1.78s-1.43.38-1.43.78a2.67,2.67,0,0,0,2,2.87c2.55.12,3.74-.61,3.78-1.35s-.23-.77-.85-.69a1.82,1.82,0,0,1-.77,0l.77-1.08s2.7.81,3.74,1.08a9.64,9.64,0,0,1,2.36-3.17c.77-.54.62-1.42-.62-2.47a2.33,2.33,0,0,0-3-.5Z" fill="#595072"/></clipPath><clipPath id="bd3127aa-1795-4472-9c5c-22307b82ea14"><path d="M89.54,19.86l-7.1-.06s-2.57-1.54-4.21-1.23S74.93,19.75,75,21.5A3,3,0,0,0,76.25,24c.73.73,2.18,1.92,3.39,1.73a3.26,3.26,0,0,0,2-.88l7.41,2.62Z" fill="#595072"/></clipPath><clipPath id="fe12a7bd-61c0-4223-a0e4-5c23597ec3fc"><path d="M91.47,69.3c.67,1.69.49,4-1.21,3.65s-3.08-1-4.78-.62a5.39,5.39,0,0,1-3.55-.26c-.82-.3-.93-.87-.67-1.18-.62-.26-.31-.56-.31-.56a.57.57,0,0,1,.52-.72c.67-.11,1,.82,2,.51s4-1.67,4-1.67l.92.07A16.17,16.17,0,0,1,91.47,69.3Z" fill="#f0d6b8"/></clipPath><clipPath id="a904a533-47f2-4f28-8108-13140cd7d71e"><path d="M69.26,13.64h0Zm1.7,6.1c-.27.39-6.71,3.13-6.71,3.13l-1.32-1.82a12.12,12.12,0,0,0-.31-2.16c-.19-.5.93-3.2.93-3.2l2.08-1.85c3.6.25,3.65-.13,3.63-.19C69.32,13.82,71.22,19.36,71,19.74Zm-4.19-3.2-1.41-.46-.52,1.77s.5.09,1.58.36a.92.92,0,0,0,.89-.37A.91.91,0,0,0,66.77,16.54Z" fill="none"/></clipPath><clipPath id="a062a10c-ce67-42c2-8d40-4cddd2c97190"><path d="M87.5,9.65C87.3,13,88.9,15.89,91.08,16s4.12-2.46,4.32-5.84S94,4,91.83,3.8,87.71,6.26,87.5,9.65Z" fill="none" stroke="#d9d9d9" stroke-miterlimit="10" stroke-width="1.44"/></clipPath><clipPath id="b096216f-c655-42b1-9034-a99ebb6912a6"><path d="M59.4,77a8.07,8.07,0,0,0,2.34,1.19c.73.15.77.69.77.69a.93.93,0,0,1,.11.89c-.24.5-1.23.73-2,.46a14.17,14.17,0,0,0-4.78,0,5.9,5.9,0,0,1-3.52.16c-1.43-.6-1-2.82,1.93-3.71A7.31,7.31,0,0,1,59.4,77Z" fill="#f0d6b8"/></clipPath><clipPath id="bb28ac94-52b5-4c31-8845-211bd2c4f5d9"><path d="M81.62,27.1c1.52-.46,10.87-3.25,13.5-4.16s13.67-4.31,13.67-4.31a4.25,4.25,0,0,1,1.17-.5c.73-.21,1.07-.38,1.3-.19a.67.67,0,0,1,.23.4.64.64,0,0,1,0,.46c-.07.28-.45.34-1.16.6a4.28,4.28,0,0,1-1.24.27s-11,3.64-13.64,4.43S83.58,28,82.09,28.55s-3.61,1.46-5,1.87-4.49,1.07-4.49,1.07L58.9,35.88c-.51.16-.67-.12-.67-.12l-.1-.32v0l-.1-.32s0-.32.47-.48l13.69-4.38s2.91-1.26,4.28-1.74S80.11,27.55,81.62,27.1Z" fill="#edd57e"/></clipPath><clipPath id="be46ffde-b900-4fa9-9da2-cdc1ac393ed7"><path d="M72.83,30.66h0v.05a.06.06,0,0,1,0,0h0a7.14,7.14,0,0,1,.5,2.26c-.18-.09-.25-.32-.52-.7s-.52-.7-.52-.7a2,2,0,0,0-.12-.67h0v0h0a2,2,0,0,0-.3-.62s0-.39,0-.86-.07-.7,0-.88A7.45,7.45,0,0,1,72.83,30.66Z" fill="#edd57e"/></clipPath><clipPath id="a11ecde5-c968-4847-bb66-73e87a44d755"><path d="M52.55,49.88a7.41,7.41,0,0,0,5.56-.39c2-.77,3.94.77,5.48,3.32s.77,2.85.23,4.09c-.92,5.86-.23,15.51-4.17,20.91-5.55,1.93-6.25,1.78-6.25,1.78l-1,6.17S48.64,89.67,35,91.55c-16.9,2.31-27.63-4.86-27.63-4.86a50.31,50.31,0,0,1,8.18-11.5,115.72,115.72,0,0,1,8.72-9s-.61-5.41,4.09-11S35,47.64,35,47.64a47.37,47.37,0,0,1,12.66-1.93C53.4,45.86,52.55,49.88,52.55,49.88Z" fill="#383761"/></clipPath><clipPath id="f42d05a8-8363-40dc-be59-aee41a9759a5"><path d="M48.62,44.86c3.16,1.77,4.55-.93,3.93,12.11a136.54,136.54,0,0,0,.93,23.54l-.31,9.42s-.15,2-4.78,4.7-16.67,4.48-16.67,4.48L16.59,97,7.18,94.4l-4.48-5s-.85-4.33-.85-5S9.49,67.55,9.49,67.55l7.18-14.28L27.86,45Z" fill="none"/></clipPath><clipPath id="ebadc1e3-8ea1-41ba-babe-80d365a03683"><path d="M54.17,46.4C44.84,51.26,25,65.15,23,67.32c-6.1-3.86-5.94-11.58-5.94-11.58l8.33-9.34,13.35-6.56,14.2-1.31Z" fill="#6a6182" opacity="0.2" style="mix-blend-mode:multiply"/></clipPath><clipPath id="ecd74168-622c-49e1-b585-2a14933ea224"><path d="M45.22,43.32C39.28,48,30,53.66,28.71,54.89a18.05,18.05,0,0,0-4,7.18c-2.55-1.78-4.56-5-3.09-6.33s6.25-1.85,9-4.17a19.24,19.24,0,0,0,4.47-6.17Z" fill="#383761"/></clipPath><clipPath id="e7a8264c-74e9-45f6-9ca2-aa2293b05b32"><path d="M55.59,41.36c-.24,1.56-4,0-4,0s-7.21-2.36-10.4-.56-6,3.39-7.92,1.59-1.39-7.2-1.34-11.83.11-5.09,5.51-7.15c2.26-.67,2-2.11.46-3.5s-4.47-6.53-2-9.16a5.77,5.77,0,0,1,9.57,1.49c2.31,4.43,1.85,6.59,1.44,8.6,6.22,1.13,7.4,1.59,10,3.39a27.85,27.85,0,0,0,6.79,3s3-1.18,1.9,3.61-1.54,5.19-2,5.45-3.14-.26-5.35-.26-3.09.46-2.88,1.91A14.07,14.07,0,0,1,55.59,41.36Z" fill="#383761"/></clipPath><clipPath id="abc62caf-fa60-4278-8a75-4db8ad73b04b"><path d="M54.87,49.54c-.52,1.33-2.73,1.65-2.78,0s.21-3.19-.72-3.6-.15-1,.15-3.7.47-3.14,1.55-3.71,1.75-2,2.78-1.64.46,4.06.1,7.71S55.23,48.61,54.87,49.54Z" fill="#212121"/></clipPath><clipPath id="aa91edb9-f371-4fbc-be82-19f607c90219"><path d="M64.63,28.38c1.06-1.34,3.09-1,6.06,1.66s3.46,4.46,2,5.91-2.82,2.12-4.44.69a8.17,8.17,0,0,1-2-2.2s-.69.39-1.77-.46C63.1,32.9,63.09,30.35,64.63,28.38Z" fill="#595072"/></clipPath><clipPath id="b422e424-310e-4fdd-9a1f-8e3eb9e91f96"><path d="M64.36,27.77c1.85-.43,4,.09,2.86,2.62-1.51,3.32-4.6,5-5.14,2.39S64.36,27.77,64.36,27.77Z" fill="#6a6182" opacity="0.75" style="mix-blend-mode:multiply"/></clipPath><clipPath id="ec47079f-b325-40aa-ae3c-0d901cf0ba39"><path d="M42,21.14c-1.1-1-1.08-2.16-.77-4.27s1.64-6.79-3.66-7.35c-1.54,1-2.67,5.14-1.08,7.76s3.27,4.71,2.19,5.53c-.21-1-.59-1.72-2.08-3.42s-4.17-4-3.5-6.74S37.38,8,40.36,7.56s6.48,2.21,7.72,7a8.61,8.61,0,0,1-.41,5.91,42.39,42.39,0,0,0,4.94-1.64c2.52-1,4.27-2.52,4.78-1.8s1,1.33,1.18,1.64.21.31-1.39,1.5a13.38,13.38,0,0,1-5.76,2.41C48.18,23.15,44.12,23,42,21.14Z" fill="#292854"/></clipPath><clipPath id="eed814c6-0241-4f52-8b5a-f484de75917b"><path d="M13.51,83c-.78.61-1,1.28-2,1.26-1.75,0-3.33-.09-3.33,1.68a11.09,11.09,0,0,1-.52,4.29C7.15,91.46,7,92.55,7.46,93c0,1.08,0,1.7.65,1.79a.52.52,0,0,0,.21.59.88.88,0,0,0,.45.11s0,.48.51.35a.51.51,0,0,0,1-.09c.4.51,1.22.31,1-.61a7.72,7.72,0,0,1,.35-3.21c.25-.77,1-2.77,1.35-3.69s6.55-5.76,6.55-5.76-.16-.21-2-.08A33.23,33.23,0,0,0,13.51,83Z" fill="#e6ba87"/></clipPath></defs><g style="isolation:isolate"><g id="a094d2b6-21f7-4c6e-9c7f-b782babc5bfc"><path d="M154.49,57.64l7.2-2c.43,6.27,2,12.53,8.28,12.53,4.18,0,6.41-2.38,6.41-6.84,0-5.26-2.66-8-6.34-11.23l-9.79-8.64c-3.89-3.39-5.62-7.06-5.62-12.89,0-8.57,5.26-13.47,13.69-13.47,9.28,0,13.75,4.83,14.68,15.05l-6.91,1.87c-.43-5.76-1.73-10.65-7.77-10.65-4,0-6.41,2.16-6.41,6.4,0,3.53,1.08,5.55,3.81,7.93l9.87,8.64c4.39,3.88,8.35,9.07,8.35,16.34,0,8.64-5.83,13.9-14,13.9C159.82,74.63,155.07,67.72,154.49,57.64Z"/><path d="M191.71,64.62V37.47h-4.39V32.36h4.39V20.19h7.71V32.36h6.7v5.11h-6.7V64.12c0,3.24.79,4.53,3.81,4.53a21.18,21.18,0,0,0,2.81-.21v5.68a32.92,32.92,0,0,1-5.32.44C194.16,74.56,191.71,70.67,191.71,64.62Z"/><path d="M211.51,66.06V32.36h7.71v31.4c0,2.95.65,4.75,3.31,4.75,1.73,0,3.67-1.15,5.4-2.59V32.36h7.71V74h-7.71v-4.1c-2.74,2.59-6.12,4.68-10.15,4.68C212.81,74.56,211.51,70.09,211.51,66.06Z"/><path d="M242.69,57.64V49.57c0-9.5,1.73-17.79,10.22-17.79A9.88,9.88,0,0,1,259.83,35V15.66h7.7V74h-7.7V71.32a9,9,0,0,1-6.7,3.24C246.07,74.56,242.69,70,242.69,57.64Zm17.14,9.28V39.63a8.88,8.88,0,0,0-4.9-1.8c-3.6,0-4.54,4-4.54,8.72V58.28c0,5.84.58,10.23,4.68,10.23A8.92,8.92,0,0,0,259.83,66.92Z"/><path d="M275.81,18.1h7.7v8.07h-7.7Zm0,14.26h7.7V74h-7.7Z"/><path d="M291.07,59.22V47.12c0-9.36,2.88-15.34,12.17-15.34s12.1,6,12.1,15.34v12.1c0,9.36-2.88,15.34-12.1,15.34S291.07,68.58,291.07,59.22Zm16.56.5v-13c0-4.68,0-9.22-4.39-9.22s-4.46,4.54-4.46,9.22v13c0,4.68,0,9.15,4.46,9.15S307.63,64.4,307.63,59.72Z"/><path d="M338.44,55.26V34.66c0-11.8,3.32-19.51,15.7-19.51,10.88,0,14.69,6.27,14.69,16.78v4.61h-7.7V32.43c0-6.48-.15-10.94-6.92-10.94s-7.56,4.75-7.56,12V56.56c0,8.78,2,11.66,7.56,11.66,6.56,0,6.92-4.68,6.92-11.59V52.31h7.7v4.32c0,10.73-3.24,18-14.69,18C341.76,74.63,338.44,66.13,338.44,55.26Z"/><path d="M376.46,18.1h7.71v8.07h-7.71Zm0,14.26h7.71V74h-7.71Z"/><path d="M394.53,64.62V37.47h-4.39V32.36h4.39V20.19h7.71V32.36h6.69v5.11h-6.69V64.12c0,3.24.79,4.53,3.81,4.53a21.3,21.3,0,0,0,2.81-.21v5.68a33,33,0,0,1-5.33.44C397,74.56,394.53,70.67,394.53,64.62Z"/><path d="M414,78.52c5.62,0,7.56-.65,7.56-3.1A72.19,72.19,0,0,0,420,67.79L411.6,32.36h7.77L425,63.47l5.4-31.11h7.78l-9.94,43.93c-1.37,6-5.76,8.13-13.32,8.13H414Z"/><path d="M460,15.66h8.14v27.5l13.39-27.5h7.56l-11.52,25.7L490.94,74H483L471.86,46.62l-3.74,6.77V74H460Z"/><path d="M494.18,57.92v-9.5c0-11,2.73-16.64,12.31-16.64,10.44,0,11.81,6.77,11.81,18.15v3.38H501.88v8.36c0,5,1.37,7.2,4.68,7.2s4.18-2.67,4.18-6.84V59.51h7.49v1.58c0,8.35-3.24,13.47-11.74,13.47C496.7,74.56,494.18,68.8,494.18,57.92Zm16.56-8.78V45.39c0-5.11-.5-7.92-4.32-7.92s-4.54,2.24-4.54,9.44v2.23Z"/><path d="M525.28,32.36H533v4.11c2.73-2.6,6.12-4.69,10.15-4.69,5,0,6.26,4.47,6.26,8.5V74h-7.7V42.51c0-2.95-.65-4.68-3.31-4.68-1.73,0-3.67,1.16-5.4,2.6V74h-7.71Z"/><path d="M556.1,57.64V49.57c0-9.5,1.73-17.79,10.22-17.79A9.84,9.84,0,0,1,573.23,35V15.66h7.71V74h-7.71V71.32a9,9,0,0,1-6.69,3.24C559.48,74.56,556.1,70,556.1,57.64Zm17.13,9.28V39.63a8.82,8.82,0,0,0-4.89-1.8c-3.6,0-4.54,4-4.54,8.72V58.28c0,5.84.58,10.23,4.68,10.23A8.86,8.86,0,0,0,573.23,66.92Z"/><path d="M588,59.22V47.12c0-9.36,2.88-15.34,12.17-15.34s12.1,6,12.1,15.34v12.1c0,9.36-2.88,15.34-12.1,15.34S588,68.58,588,59.22Zm16.56.5v-13c0-4.68,0-9.22-4.39-9.22S595.7,42,595.7,46.69v13c0,4.68,0,9.15,4.46,9.15S604.55,64.4,604.55,59.72Z"/><path d="M636.45,15.66h12.67c13,0,17.28,6,17.28,17.78V54.9C666.4,67.28,662,74,649.77,74H636.45Zm12.74,52.49c8.86,0,9-5.33,9-14.76V34.45c0-9-.86-12.75-9.21-12.75h-4.4V68.15Z"/><path d="M673,59.22V47.12c0-9.36,2.88-15.34,12.17-15.34s12.1,6,12.1,15.34v12.1c0,9.36-2.88,15.34-12.1,15.34S673,68.58,673,59.22Zm16.56.5v-13c0-4.68,0-9.22-4.39-9.22s-4.46,4.54-4.46,9.22v13c0,4.68,0,9.15,4.46,9.15S689.58,64.4,689.58,59.72Z"/><path d="M699.09,84V78.45a19.57,19.57,0,0,0,2,.21c3.31,0,4.32-2.09,4.32-5V32.36h7.71V74.41c0,6.55-3.82,10.08-10.08,10.08A11.5,11.5,0,0,1,699.09,84Zm6.33-65.89h7.78v8.07h-7.78Z"/><path d="M720.18,59.22V47.12c0-9.36,2.88-15.34,12.17-15.34s12.1,6,12.1,15.34v12.1c0,9.36-2.88,15.34-12.1,15.34S720.18,68.58,720.18,59.22Zm16.56.5v-13c0-4.68,0-9.22-4.39-9.22s-4.46,4.54-4.46,9.22v13c0,4.68,0,9.15,4.46,9.15S736.74,64.4,736.74,59.72Z"/><path d="M99.16,11.83c.16.62,2.32,12.19,7.41,13.58" fill="none" stroke="#61577a" stroke-miterlimit="10" stroke-width="1.63"/><path d="M99,11.06A19.35,19.35,0,0,0,107,23.28" fill="none" stroke="#6a6182" stroke-miterlimit="10" stroke-width="1.63"/><path d="M87.64,9.26c-.2,4.22.16,8-5,7.3,6.69,3,8.69,1.75,8.69,1.75A11.83,11.83,0,0,0,91.65,16c.11-1.5,4.27-8.59,4.12-9.06a3.68,3.68,0,0,0-4.12-3C89.64,4.15,87.85,5,87.64,9.26Z" fill="#010034"/><path d="M57.16,15.22c-1.63-.56-11.71-4-14.61-4.89S27.67,5.47,27.67,5.47a4.28,4.28,0,0,1-1.35-.29c-.78-.29-1.19-.35-1.27-.66a.69.69,0,0,1,0-.5.74.74,0,0,1,.26-.44c.25-.2.62,0,1.42.21A4.62,4.62,0,0,1,28,4.34S40.09,8.08,43,9.07,56,13.13,57.67,13.63s4.13,1,5.63,1.52S68,17.06,68,17.06l14.93,4.8c.56.18.52.53.52.53l-.11.34,0,.05-.11.35s-.17.3-.73.12l-14.93-4.8s-3.38-.73-4.9-1.18S58.79,15.78,57.16,15.22Z" fill="#edd57e"/><g clip-path="url(#a45eda6c-ce0b-4d58-8ab2-d015c178f9ef)"><path d="M65,22.55l19.24,6.2,3.33-10.33-19.24-6.2Zm2.35-4.49a.43.43,0,1,1,.26-.82c.45.15,1.29.51,1.45.92C68.64,18.4,67.75,18.2,67.3,18.06Z" fill="#f0ede8"/><polyline points="66.91 17.49 28.52 5.13 27.46 5.22" fill="none" stroke="#fff" stroke-miterlimit="10" stroke-width="0.36"/><line x1="27.79" y1="4.44" x2="28.51" y2="5.13" fill="none" stroke="#fff" stroke-miterlimit="10" stroke-width="0.36"/><rect x="22.59" y="1.4" width="6.31" height="4.62" transform="translate(14.32 27.08) rotate(-72.16)" fill="#f0ede8"/><polygon points="38.93 9.53 38.9 9.52 38.9 9.52 38.38 9.32 38.54 8.83 38.28 8.27 38.82 7.97 38.97 7.48 39.51 7.62 39.51 7.62 39.54 7.63 39.58 7.64 39.57 7.64 40.09 7.84 39.93 8.33 40.19 8.88 39.66 9.18 39.5 9.68 38.96 9.54 38.96 9.54 38.93 9.53" fill="#f0ede8"/></g><path d="M122.34,64.59c1.24,0,2.12,1.8,3,3.81a33.11,33.11,0,0,1,1.74,4.09,7.57,7.57,0,0,1,.16,1s.42,1-.25,1.23c.15.49,0,.8-.36.85.15.54-.49,1-.9.67a.6.6,0,0,1-1,.64.91.91,0,0,1-1.54-.25,6.71,6.71,0,0,1-.67-2c-.11-.83-.18-2.19-.34-3.07a20.26,20.26,0,0,0-1.49-3.7C120.39,67.19,122.34,64.59,122.34,64.59Z" fill="#f0d6b8"/><g clip-path="url(#b7549908-b110-4dc6-8b46-58c29f61770e)"><path d="M124.19,74.85a2.1,2.1,0,0,0,.22.59,3.48,3.48,0,0,0,.34.51.74.74,0,0,1,.17.62.7.7,0,0,1-.35.55.07.07,0,0,1-.09,0,.06.06,0,0,1,0-.09h0a.6.6,0,0,0,.31-.45.63.63,0,0,0-.12-.56,3.65,3.65,0,0,1-.32-.54A2.1,2.1,0,0,1,124.19,74.85Z" fill="#cda260"/><path d="M125.08,74.8a2.57,2.57,0,0,0,.16.54,2.82,2.82,0,0,0,.25.49,5.48,5.48,0,0,1,.34.46,1.37,1.37,0,0,1,.22.54.07.07,0,0,1-.06.07.05.05,0,0,1-.07-.05h0a1.19,1.19,0,0,0-.17-.5,4.66,4.66,0,0,0-.3-.47,2.66,2.66,0,0,1-.23-.52A2.59,2.59,0,0,1,125.08,74.8Z" fill="#cda260"/><path d="M125.83,74.36a3.32,3.32,0,0,0,.39.69,2.25,2.25,0,0,0,.56.55s0,.05,0,.09a.07.07,0,0,1-.09,0h0a2.24,2.24,0,0,1-.53-.62A3.24,3.24,0,0,1,125.83,74.36Z" fill="#cda260"/><path d="M126.37,73.46a2.44,2.44,0,0,0,.3.79,3,3,0,0,0,.25.34.74.74,0,0,0,.33.21.07.07,0,0,1,0,.08.07.07,0,0,1-.08.05h0a.84.84,0,0,1-.36-.28,1.43,1.43,0,0,1-.23-.37A2.37,2.37,0,0,1,126.37,73.46Z" fill="#cda260"/></g><path d="M106.21,37.61c6,4.93,17,17.9,22,25-.51,4.68-3.86,12.86-8,15.43-4.38,2.06-7.15-.72-8.39-2.31-2-1.63-5.43-10.48-8.39-18.27-2,8.44-8.59,21.25-8.59,21.25s-6.74.21-14.45-9.52c-.52-.62-.36-1.18.41-3.39s3.09-8,3.09-8-2.17-4.52-1.24-7.87,4.79-7,10-9.16C99.88,38.89,106.21,37.61,106.21,37.61Z" fill="#383761"/><g clip-path="url(#a85e4982-6cab-4ba7-950f-12b0c14db77f)"><path d="M98.14,37.4c.46,6-.21,20.78-2.73,27.32s-4.58,8.54-4.58,8.54l-1,4.06,2.68,2.42,5.55-.1,3.35-4,2.16-17.14s-3.76-18.93-4.17-20.27S98.14,37.4,98.14,37.4Z" fill="#22264a" opacity="0.35"/><path d="M103,37c5.35,7.72,16.67,34.67,17.29,41.52-9.67,3-10.24,2.72-10.24,2.72s-3.55-10.8-4.06-12.14-2.52-11.21-2.52-11.21l-4-20Z" fill="#22264a" opacity="0.52"/><path d="M120.26,51.55c2.36,5.35,4.32,17.28,4.37,20s4.84-5.25,4.84-5.25,1.8-.77,1.64-1.75.62-4.42-.15-5.24-5.2-8.18-6.64-8.7S120.26,51.55,120.26,51.55Z" fill="#6a6182" opacity="0.2" style="mix-blend-mode:multiply"/><path d="M111.05,38.17c5.19,7.26,7.15,13.89,6.48,14.35s-3.7-3.29-6-6.43a110,110,0,0,0-8.33-9l5-2Z" fill="#6a6182" opacity="0.2" style="mix-blend-mode:multiply"/><path d="M100.86,35.91c4.4,10.34,12,34.49,12.89,40.82s-2.7,3.94-3.16,3.7-2.17-4.09-3.17-5.63-2.7-8.41-2.7-8.41l-1.31-7.56s-4.09-19.76-4.25-21.22S100.86,35.91,100.86,35.91Z" fill="#6a6182" opacity="0.2" style="mix-blend-mode:multiply"/><path d="M99.47,80.31,95.2,81s.88-.62.93-3.09S96,72.79,95,71.56s-2.06-3.81-2.37-8.69-4.37-11.42-3.76-15.23a17.6,17.6,0,0,1,7.57-12.2l2.88,2.37,4.58,21.71-.78,17.24Z" fill="#6a6182" opacity="0.2" style="mix-blend-mode:multiply"/><path d="M79.61,68.83c1.55-2.36,4.74-3.19,6.64-1.39s1.34.52,4.48,1.6,4.16,2.06,2.88,2.78-3.14,1.54-1.75,2.31,3.91,4.79,2.73,5.15-6.28.2-7.15.1a16.84,16.84,0,0,1-2.89-.93s-1.54-.1-3.13-2.72-1.24-2-1.24-2Z" fill="#22264a"/></g><path d="M106.16,36.89c1.29.82,7.41,6.53,8.34,7.4s1.24,1.14.51,2.32c-1.38,2.22-1.43,3.11-3.69,1s-7.73-8.36-7.73-8.36Z" fill="#383761"/><path d="M90.83,39.3c-2.63,1.13-6,2.84-7.61,3.7-.88.47-.92.62-.65,1,1.06,1.66,1.24,1.89,3.13.69S93,40.62,93,40.62Z" fill="#1e1f3a"/><path d="M98.35,37.84c1.2,3,4.17,11,4.83,12.46s1.89.54,3.39,0,3.44-1,2.94-2.08-5.45-10.73-5.45-10.73Z" fill="#1e1f3a"/><path d="M92.53,38.57c-1.2,3.94-2.78,9.69-2.78,9.69a1.19,1.19,0,0,0,1,1.54c1.9.41,4.59.73,6.41.92s1.81-.19,2-2.58S99,38.49,99,38.49Z" fill="#383761"/><path d="M105.18,29.63c0-3.3-1.13-10.13-3.49-11.42S98,17.44,97.57,16.1s-2.93-2.67-3.81-3.24-4.63-.46-4.88,1.85c.46,2,.1,2.32-1.75,2.21s-4.53-.36-4.53-.36l-5.3-2.11c-4.27.26-6.07.78-3.4,3.25s5.77,5.09,6.8,6.17.46,2.21,2.72,3.55a34.59,34.59,0,0,1,3.5,2.31,19.42,19.42,0,0,0,1.34,7c1.34,2.78,1.95,3.5,5.45,3.65s10.6-1.23,11.27-3.24S105.18,31.59,105.18,29.63Z" fill="#383761"/><g clip-path="url(#f13f4a78-f050-4d99-b005-a5d8c398a471)"><path d="M76.12,13.43c2.77,2.16,4.37,4.11,3.34,5.19S75.4,20,75.4,20l-2.06-.57L71,16.1A6,6,0,0,1,71.64,14C72,13.73,76.12,13.43,76.12,13.43Z" fill="#efd5b8"/><path d="M106.88,26.24C102,28.09,82.39,24.8,81.26,24.18,76.84,28.81,84,33.54,84,33.54l1.44,2.88,4.22,3.19,11.52-2.26,4.43-3.19A33.06,33.06,0,0,1,107,31a19.12,19.12,0,0,0,.72-3.5Z" fill="#18173e"/><path d="M74.62,12.4c2.17,1.39,4.43,4.47,4.58,5.4s-2.93,2.31-5.09.72c5.66,4.78,11.32,7.2,13.12,6.17,1.26-.72,15.53-4.05,15-6.48-.21-1-13.7-1.14-14.71-2.06C85.17,14,74.62,12.4,74.62,12.4Z" fill="#383761"/><g clip-path="url(#a3257feb-f207-491a-8983-3efcd08a3255)"><path d="M75.7,14.51c3.75,3.64,7.9,4,10.81,4.21-.1-1-1.78-3.41-1.54-3.39,1.24.1,6,.51,7.51.41,3.19-.2,11.55,4.21,11.73,4.53.31.56-15.27,6.88-15.27,6.88l-4.8-3.08-4-.61L77.2,26.29l-4.48-5-1.39-4.74-.15-2.36Z" fill="#6a6182" opacity="0.65" style="mix-blend-mode:multiply"/></g><path d="M103.59,20.73c-2.54-1.16-7.15-.1-8.85.52a91.22,91.22,0,0,0-11.21-1c-2.83-.1-3,2.39.51,4.53A33.9,33.9,0,0,0,96.7,29.27a15.21,15.21,0,0,0,8-1.39c2.06-.72,2.16-1.8,2.06-3.81S104.82,21.3,103.59,20.73Z" fill="#383761"/><g clip-path="url(#bdc68cd6-b3ae-4479-ba76-660cd5d63abe)"><path d="M106,20.94c-1.39,3.24-4.69,5.76-11.73,4.68a126.93,126.93,0,0,1-14.77-3.4s0,5.2.05,6,2.42,3.76,3,4.12,6.53,1,9.21,1.34,9.1.2,11.26-.93a24.48,24.48,0,0,0,4.68-3.65S109.25,25,108.84,24,106,20.94,106,20.94Z" fill="#6a6182" opacity="0.21" style="mix-blend-mode:multiply"/></g><path d="M95.61,13.22c-.41,3.76-1.59,7-2.21,7.41s-3.75.31-4.16-.16c-.69-.77-.62-2.16-1.08-4.22A8.42,8.42,0,0,1,88,13l5.4-1.44Z" fill="#292854"/><g clip-path="url(#b3efa607-6c01-44d1-8131-88a36c1169ad)"><path d="M93.92,10.49c-.26,2.11-1,9.26-.57,10.65-2.37.26-2.78.67-2.88.52a43.79,43.79,0,0,1-1.54-8.75C88.88,9.77,93.92,10.49,93.92,10.49Z" fill="#4f4754" opacity="0.21" style="mix-blend-mode:multiply"/></g></g><path d="M92.17,6.17c3.28.28,4.42,2.21,4.06,5.35A4.83,4.83,0,0,1,91.65,16c-1.49-.11-3.19-3-3-4.4s.46-1.57.51-2.7A3.07,3.07,0,0,1,92.17,6.17Z" fill="#f0d6b8"/><path d="M105.13,28.19c.78-.1,1.31.69,1.85,2.78a10.68,10.68,0,0,1,.44,4.9c-.21,1.16-1,4.36-8.1,5.8s-10-.2-10.91-2.42c-1.28-3.09-2.13-6-1.75-6.39.65-.59.81.46,1.51-.15s.72-1.95,2.31-1.59a13.24,13.24,0,0,0,7.08-.73,11.41,11.41,0,0,0,1.32,0,4.53,4.53,0,0,1,2.75,1.06c1.05.66,2.52.55,2.86-1C104.76,29.11,104.31,28.29,105.13,28.19Z" fill="#212121"/><g clip-path="url(#e26ed17e-4fef-4c67-9095-90fa8104cb99)"><path d="M94.59,41.29c-2,0-4.5-.42-5.32-2.39a30.07,30.07,0,0,1-1.7-5.08h.17a1.52,1.52,0,0,0,1-.43,3.28,3.28,0,0,0,.62-.82c.31-.53.4-.59.61-.59a1,1,0,0,1,.27,0,10.6,10.6,0,0,0,2.12.19A14.36,14.36,0,0,0,98,31.16a2.25,2.25,0,0,1,1-.25,2.39,2.39,0,0,1,1.49.76,8,8,0,0,0,.72.55,3.36,3.36,0,0,0,1.74.52,2.53,2.53,0,0,0,2.52-2.16,5.45,5.45,0,0,0,.11-1.06,9,9,0,0,1,.58,1.68,9.7,9.7,0,0,1,.42,4.5c-.45,2.45-2.94,4.16-7.38,5.06A23,23,0,0,1,94.59,41.29Z"/></g><path d="M105.42,21.67a13.34,13.34,0,0,1-3.82,1.81c-.66.23-.74.31-1.43-.54s-7.28-7.23-7.28-7.23A8.7,8.7,0,0,0,95.23,9.4c0-3.59-1.16-5.71-3.74-5.79,3.2-.65,6.9,2.82,7.56,5.33s-.23,6.44-.23,6.44,5.21,4.82,6.75,5.44C106.07,21.13,105.88,21.36,105.42,21.67Z" fill="#292854"/><path d="M70.42,14.88a5,5,0,0,0-2.12.19A3,3,0,0,0,67,16.16c-.22.34,1,1.24.89,1.78s-1.43.38-1.43.78a2.67,2.67,0,0,0,2,2.87c2.55.12,3.74-.61,3.78-1.35s-.23-.77-.85-.69a1.82,1.82,0,0,1-.77,0l.77-1.08s2.7.81,3.74,1.08a9.64,9.64,0,0,1,2.36-3.17c.77-.54.62-1.42-.62-2.47a2.33,2.33,0,0,0-3-.5Z" fill="#595072"/><g clip-path="url(#e2e85436-c2e7-4895-9173-d6ae2d233365)"><path d="M78.48,16.54c-1.15-1.16-5.9-.89-6.44-.5-.93-1-1.39-1.24-2-1.32s1.2-1.81,1.2-1.81a8.5,8.5,0,0,1,2.27-1.27,24,24,0,0,1,2.63-.39l1.93,1.66L79,14.42Z" fill="#595072" opacity="0.2" style="mix-blend-mode:screen"/><path d="M67,14.63a4.13,4.13,0,0,1,5.19,1.8c1.06,2.09.54,5.66-1.1,6.69a6.08,6.08,0,0,1-3.73.7L65,21.45,64.64,18l1.44-2.42Z" fill="#6a6182" opacity="0.2" style="mix-blend-mode:multiply"/></g><path d="M89.54,19.86l-7.1-.06s-2.57-1.54-4.21-1.23S74.93,19.75,75,21.5A3,3,0,0,0,76.25,24c.73.73,2.18,1.92,3.39,1.73a3.26,3.26,0,0,0,2-.88l7.41,2.62Z" fill="#595072"/><g clip-path="url(#bd3127aa-1795-4472-9c5c-22307b82ea14)"><path d="M82.61,19.32c-.46,1.31-1.39,5.13-.89,6.63a7.85,7.85,0,0,1-5.4,1.31S74.47,25.49,74,25.1s-.43-3.74-.27-4.51,1.81-3.43,2.27-3.51,2.9-.74,2.9-.74Z" fill="#6a6182" opacity="0.2" style="mix-blend-mode:multiply"/><path d="M91.18,22.87l-9.38-.58s-4.13-3.63-7.6-.85c-2.28-2.05-.15-4.71.5-4.9a13,13,0,0,1,3.74-1.16c1.7-.12,1.63-1.66,6.49.23S89.29,17,89.29,17a9.54,9.54,0,0,1,1.62,2.35C91,20,91.18,22.87,91.18,22.87Z" fill="#595072" opacity="0.2" style="mix-blend-mode:screen"/></g><path d="M91.47,69.3c.67,1.69.49,4-1.21,3.65s-3.08-1-4.78-.62a5.39,5.39,0,0,1-3.55-.26c-.82-.3-.93-.87-.67-1.18-.62-.26-.31-.56-.31-.56a.57.57,0,0,1,.52-.72c.67-.11,1,.82,2,.51s4-1.67,4-1.67l.92.07A16.17,16.17,0,0,1,91.47,69.3Z" fill="#f0d6b8"/><g clip-path="url(#fe12a7bd-61c0-4223-a0e4-5c23597ec3fc)"><path d="M82.39,71a2.17,2.17,0,0,0-.94-.16.59.59,0,0,0-.38.23.87.87,0,0,0-.13.43.07.07,0,0,1-.07.06.07.07,0,0,1-.06-.07h0A1,1,0,0,1,81,71a.63.63,0,0,1,.46-.22A2.16,2.16,0,0,1,82.39,71Z" fill="#cda260"/><path d="M82.24,70.38a2.22,2.22,0,0,0-1-.11.65.65,0,0,0-.41.27.88.88,0,0,0-.12.48.07.07,0,0,1-.07.07.07.07,0,0,1-.06-.07h0a1,1,0,0,1,.17-.54.68.68,0,0,1,.48-.27A2.14,2.14,0,0,1,82.24,70.38Z" fill="#cda260"/><path d="M82.08,70a2.47,2.47,0,0,0-.83-.28.94.94,0,0,0-.74.35.06.06,0,0,1-.09,0,.08.08,0,0,1,0-.1h0a1.42,1.42,0,0,1,.38-.26.92.92,0,0,1,.46-.06A2.38,2.38,0,0,1,82.08,70Z" fill="#cda260"/></g><path d="M99.29,11.23C98.71,9.61,96,6.81,94,5.44l.26-.38a19.06,19.06,0,0,1,5.13,5.34A5,5,0,0,1,99.29,11.23Z" fill="#6a6182"/><path d="M95,13.3h-.2l0-.47c1.71.09,3.79-1.23,4.53-1.75a1.78,1.78,0,0,1,0,.56A8.62,8.62,0,0,1,95,13.3Z" fill="#6a6182"/><g clip-path="url(#a904a533-47f2-4f28-8108-13140cd7d71e)"><path d="M69.13,18c-.31,1.43-1.41,2.4-2.45,2.18s-1.63-1.57-1.32-3,1.4-2.41,2.44-2.18S69.44,16.55,69.13,18Z" fill="#e6c651"/><path d="M67,19.88a.85.85,0,0,1-.23,0c-.88-.18-1.37-1.36-1.09-2.63.24-1.12,1-2,1.84-2l.24,0a1.42,1.42,0,0,1,1,.87,3,3,0,0,1,.14,1.76C68.58,19,67.79,19.88,67,19.88Z" fill="#edcf64"/></g><path d="M90.45,4.12c-3,4.83-.52,11.54-.52,11.54" fill="none" stroke="#d9d9d9" stroke-miterlimit="10" stroke-width="1.06"/><g clip-path="url(#a062a10c-ce67-42c2-8d40-4cddd2c97190)"><line x1="96.02" y1="4.95" x2="87.18" y2="4.13" fill="none" stroke="#d9d9d9" stroke-miterlimit="10" stroke-width="1.44"/><line x1="95.95" y1="5.78" x2="87.11" y2="4.96" fill="none" stroke="#d9d9d9" stroke-miterlimit="10" stroke-width="1.44"/><line x1="95.88" y1="6.6" x2="87.04" y2="5.78" fill="none" stroke="#d9d9d9" stroke-miterlimit="10" stroke-width="1.44"/><line x1="95.81" y1="7.43" x2="86.97" y2="6.61" fill="none" stroke="#d9d9d9" stroke-miterlimit="10" stroke-width="1.44"/><line x1="95.74" y1="8.25" x2="86.9" y2="7.43" fill="none" stroke="#d9d9d9" stroke-miterlimit="10" stroke-width="1.44"/><line x1="95.67" y1="9.08" x2="86.83" y2="8.26" fill="none" stroke="#d9d9d9" stroke-miterlimit="10" stroke-width="1.44"/><line x1="95.6" y1="9.9" x2="86.76" y2="9.08" fill="none" stroke="#d9d9d9" stroke-miterlimit="10" stroke-width="1.44"/><line x1="95.53" y1="10.73" x2="86.69" y2="9.91" fill="none" stroke="#d9d9d9" stroke-miterlimit="10" stroke-width="1.44"/><line x1="95.46" y1="11.55" x2="86.62" y2="10.73" fill="none" stroke="#d9d9d9" stroke-miterlimit="10" stroke-width="1.44"/><line x1="95.39" y1="12.38" x2="86.55" y2="11.56" fill="none" stroke="#d9d9d9" stroke-miterlimit="10" stroke-width="1.44"/><line x1="95.32" y1="13.2" x2="86.48" y2="12.38" fill="none" stroke="#d9d9d9" stroke-miterlimit="10" stroke-width="1.44"/><line x1="95.25" y1="14.03" x2="86.41" y2="13.21" fill="none" stroke="#d9d9d9" stroke-miterlimit="10" stroke-width="1.44"/><line x1="95.18" y1="14.85" x2="86.34" y2="14.03" fill="none" stroke="#d9d9d9" stroke-miterlimit="10" stroke-width="1.44"/><line x1="95.11" y1="15.68" x2="86.27" y2="14.86" fill="none" stroke="#d9d9d9" stroke-miterlimit="10" stroke-width="1.44"/></g><path d="M87.5,9.65C87.3,13,88.9,15.89,91.08,16s4.12-2.46,4.32-5.84S94,4,91.83,3.8,87.71,6.26,87.5,9.65Z" fill="none" stroke="#d9d9d9" stroke-miterlimit="10" stroke-width="1.44"/><path d="M39.13,20.32C38.66,22,32.49,25,27.55,24.49S29.4,27,32.8,27,40.67,24,40.67,24L41,22l-1.85-1.7" fill="#141244"/><path d="M59.4,77a8.07,8.07,0,0,0,2.34,1.19c.73.15.77.69.77.69a.93.93,0,0,1,.11.89c-.24.5-1.23.73-2,.46a14.17,14.17,0,0,0-4.78,0,5.9,5.9,0,0,1-3.52.16c-1.43-.6-1-2.82,1.93-3.71A7.31,7.31,0,0,1,59.4,77Z" fill="#f0d6b8"/><g clip-path="url(#b096216f-c655-42b1-9034-a99ebb6912a6)"><path d="M61.74,79.05a3.15,3.15,0,0,0,.7.2,1.14,1.14,0,0,1,.35.13.5.5,0,0,1,.25.32h0a.06.06,0,0,1,0,.08.06.06,0,0,1-.08,0h0a.44.44,0,0,0-.17-.27,1.57,1.57,0,0,0-.32-.15A2.66,2.66,0,0,1,61.74,79.05Z" fill="#cda260"/><path d="M61.4,78.43a5.34,5.34,0,0,0,.76.28l.38.16a.94.94,0,0,1,.33.27.06.06,0,0,1,0,.09.06.06,0,0,1-.09,0h0a.82.82,0,0,0-.27-.25,3.9,3.9,0,0,0-.35-.19l-.38-.16A1.73,1.73,0,0,1,61.4,78.43Z" fill="#cda260"/></g><path d="M62.53,35.75c.82,1.12.16,2.32-2,3.55s-4.17,1-5.4.05-2-3.34.87-5A5.16,5.16,0,0,1,62.53,35.75Z" fill="#26254a"/><path d="M81.62,27.1c1.52-.46,10.87-3.25,13.5-4.16s13.67-4.31,13.67-4.31a4.25,4.25,0,0,1,1.17-.5c.73-.21,1.07-.38,1.3-.19a.67.67,0,0,1,.23.4.64.64,0,0,1,0,.46c-.07.28-.45.34-1.16.6a4.28,4.28,0,0,1-1.24.27s-11,3.64-13.64,4.43S83.58,28,82.09,28.55s-3.61,1.46-5,1.87-4.49,1.07-4.49,1.07L58.9,35.88c-.51.16-.67-.12-.67-.12l-.1-.32v0l-.1-.32s0-.32.47-.48l13.69-4.38s2.91-1.26,4.28-1.74S80.11,27.55,81.62,27.1Z" fill="#edd57e"/><g clip-path="url(#bb28ac94-52b5-4c31-8845-211bd2c4f5d9)"><path d="M71.9,25.79,54.26,31.43l3,9.48,17.64-5.65Zm.66,4.6a.36.36,0,0,1,.5.25.35.35,0,0,1-.27.49,2.45,2.45,0,0,1-1.57.1C71.37,30.85,72.14,30.52,72.56,30.39Z" fill="#f0ede8"/><polyline points="73.14 30.6 108.34 19.34 109.08 18.7" fill="none" stroke="#fff" stroke-miterlimit="10" stroke-width="0.33"/><line x1="109.26" y1="19.46" x2="108.36" y2="19.33" fill="none" stroke="#fff" stroke-miterlimit="10" stroke-width="0.33"/><polygon points="73.11 30.45 73.22 30.77 81.85 28.12 81.68 27.58 73.11 30.45" fill="#f0ede8"/><rect x="109.06" y="16.02" width="4.23" height="5.78" transform="translate(-0.47 34.81) rotate(-17.76)" fill="#f0ede8"/><polygon points="98.24 21.61 98.27 21.6 98.27 21.6 98.76 21.48 98.91 21.93 99.39 22.2 99.16 22.71 99.3 23.16 98.83 23.34 98.83 23.35 98.8 23.35 98.77 23.36 98.77 23.36 98.28 23.49 98.13 23.04 97.65 22.76 97.88 22.26 97.74 21.8 98.21 21.62 98.21 21.62 98.24 21.61" fill="#f0ede8"/></g><path d="M72.83,30.66h0v.05a.06.06,0,0,1,0,0h0a7.14,7.14,0,0,1,.5,2.26c-.18-.09-.25-.32-.52-.7s-.52-.7-.52-.7a2,2,0,0,0-.12-.67h0v0h0a2,2,0,0,0-.3-.62s0-.39,0-.86-.07-.7,0-.88A7.45,7.45,0,0,1,72.83,30.66Z" fill="#edd57e"/><g clip-path="url(#be46ffde-b900-4fa9-9da2-cdc1ac393ed7)"><path d="M72.46,30.57a22.34,22.34,0,0,1,.74,2.92l-.87.28-1.74-5.42.91-.29A23,23,0,0,1,72.46,30.57Z" fill="#7284b3"/></g><path d="M52.55,49.88a7.41,7.41,0,0,0,5.56-.39c2-.77,3.94.77,5.48,3.32s.77,2.85.23,4.09c-.92,5.86-.23,15.51-4.17,20.91-5.55,1.93-6.25,1.78-6.25,1.78l-1,6.17S48.64,89.67,35,91.55c-16.9,2.31-27.63-4.86-27.63-4.86a50.31,50.31,0,0,1,8.18-11.5,115.72,115.72,0,0,1,8.72-9s-.61-5.41,4.09-11S35,47.64,35,47.64a47.37,47.37,0,0,1,12.66-1.93C53.4,45.86,52.55,49.88,52.55,49.88Z" fill="#383761"/><g clip-path="url(#a11ecde5-c968-4847-bb66-73e87a44d755)"><path d="M65,51.39c.06,2.42-.36,1.08-4.47,6.43s-10,15.44-9.42,21,5.56,5.2,6,5.35,4.43-2.67,4.43-2.67l4.22-8.95s1.49-7.67,1.33-9.31a46.07,46.07,0,0,1,.11-5.2Z" fill="#2e3254"/><path d="M64.28,56.79c-1.18,6.33-5.66,19.71-14,22.9,2.47-13.22,2.47-29.89,2.47-29.89l-4.43-.67L53,46.25l5.5-.57,7.72,4.53Z" fill="#6a6182" opacity="0.2" style="mix-blend-mode:multiply"/><g clip-path="url(#f42d05a8-8363-40dc-be59-aee41a9759a5)"><path d="M54.17,46.4C44.84,51.26,25,65.15,23,67.32c-6.1-3.86-5.94-11.58-5.94-11.58l8.33-9.34,13.35-6.56,14.2-1.31Z" fill="#6a6182" opacity="0.2" style="mix-blend-mode:multiply"/><g clip-path="url(#ebadc1e3-8ea1-41ba-babe-80d365a03683)"><path d="M52.55,36.14C39.9,46.71,27.63,59.83,23.85,70.71c-7.26-2.62-6.25-8.26-6.25-8.26L20.91,53S30,42.31,31,41.39,52.55,36.14,52.55,36.14Z" fill="#22264a"/></g><path d="M55.41,50.65c-7.49,4.55-38.2,37.5-39,45.37a53.92,53.92,0,0,0,35.5.47s4.48-4.4,4.55-7.88,2.32-12.88,1.78-16.82.07-12-.77-14A63.28,63.28,0,0,1,55.41,50.65Z" fill="#6a6182" opacity="0.2" style="mix-blend-mode:multiply"/><path d="M53.25,49.34C47.77,53.12,11.19,83.75,8.49,92.78-.31,93.32,0,84.22,0,84.22s3.09-8.49,6.56-11.43,18-13.73,18-13.73L40,49.18,51,44.4l3.32.23Z" fill="#6a6182" opacity="0.2" style="mix-blend-mode:multiply"/><path d="M54.64,57.13c-4.71,6.33-15.59,23.3-11.81,36.42,13,3.4,15.9-10.26,15.9-10.26L59,76.11Z" fill="#2d2c4f"/><path d="M7.56,88c-.84-1.47.85-2,3.63-3.17s8.49-5.09,12.5.31,8.49,7.1,16.13,6.1a33.3,33.3,0,0,1-16.44,6c-1.08,0-9.95-1.24-9.95-1.24L9,91.24Z" fill="#22264a"/></g><path d="M51.32,48.87c1.29,3.55,8.59,4.89,12.66,3.71-.83-5.35-3.81-7-3.81-7l-5.56.82Z" fill="#383761"/><path d="M52.66,45.37c1.8,3.71,3.8,6.33,4.52,12.3s1.7,7.61,1,7.87-1.75-.87-3.55-6.38-3.34-13.22-3.34-13.22Z" fill="#1e1f3a"/></g><path d="M53.48,47c-1.23,1.85-3.78,11.58-4.09,14.74s-.62,3.39-1.93,3.39h-4.4c-1.85,0-2.08-.54-1.62-4.16s1.47-10.81,3-13.43,2.78-3.16,2.78-3.16Z" fill="#383761"/><path d="M45.92,46.56c-1.47,1.54-5.74,7.74-7.51,9.59a28.55,28.55,0,0,0-3.55,2.39,7.46,7.46,0,0,1-1.38-.19c-1.22-.29-1.11-.87-.37-2.15,1.46-2.54,8.18-11.65,8.18-11.65l6.25-.39Z" fill="#1e1f3a"/><path d="M45.22,43.32C39.28,48,30,53.66,28.71,54.89a18.05,18.05,0,0,0-4,7.18c-2.55-1.78-4.56-5-3.09-6.33s6.25-1.85,9-4.17a19.24,19.24,0,0,0,4.47-6.17Z" fill="#383761"/><g clip-path="url(#ecd74168-622c-49e1-b585-2a14933ea224)"><path d="M39.9,48.41c-4.86,1.39-8.49,5-12.81,6.1s-7,1.62-6.1,4.93a19.73,19.73,0,0,0,3.47,6.33l6.8-1.85,7.09-6.64Z" fill="#1e1f3a"/></g><path d="M52.61,48.87c-.67-1.28-11.53-3.75-18.73-1.08A30.82,30.82,0,0,1,35.47,41s9-4.17,18.11.31C54.05,46.25,52.61,48.87,52.61,48.87Z" fill="#22264a"/><path d="M55.59,41.36c-.24,1.56-4,0-4,0s-7.21-2.36-10.4-.56-6,3.39-7.92,1.59-1.39-7.2-1.34-11.83.11-5.09,5.51-7.15c2.26-.67,2-2.11.46-3.5s-4.47-6.53-2-9.16a5.77,5.77,0,0,1,9.57,1.49c2.31,4.43,1.85,6.59,1.44,8.6,6.22,1.13,7.4,1.59,10,3.39a27.85,27.85,0,0,0,6.79,3s3-1.18,1.9,3.61-1.54,5.19-2,5.45-3.14-.26-5.35-.26-3.09.46-2.88,1.91A14.07,14.07,0,0,1,55.59,41.36Z" fill="#383761"/><g clip-path="url(#e7a8264c-74e9-45f6-9ca2-aa2293b05b32)"><path d="M36.61,23.61c1.59.46,15.17,9.88,19.24,13.28" fill="none" stroke="#6a6182" stroke-miterlimit="10" stroke-width="2.17"/><path d="M49,21.09c-2.93,1.18-14.66,10.24-17.49,16.16" fill="none" stroke="#6a6182" stroke-miterlimit="10" stroke-width="2.17"/><path d="M34.65,9.36l.14,0C34.77,9.25,34.65,9.36,34.65,9.36Z" fill="none" stroke="#6a6182" stroke-miterlimit="10" stroke-width="0.27"/><path d="M65.21,33.28c-.67,1.24-1.9.36-4.27-3.44s-5.07-3.54-3.6-1.65a31.73,31.73,0,0,1,2.78,4.42,13.49,13.49,0,0,0,2.71,3.47,3.17,3.17,0,0,1-2.66-1.77C59,32.15,55.38,33.85,52.61,37s-7,1.9-6,.56c.66-.86,1.71-1.64,1.53-1.91,1.69-.61,3.61-.74,4.49-2.1,1-1.59,2.67-2.93,4.42-2.42s1.18-1.33-.51-2.67-3.19-.26-4.17,2.06-.88,2.77-2.06,3.34c-1.74.83-3.14,1.39-4.2,1.93-3.14.75-7.8,3.59-9.74,2.65S34,28.55,38.77,25.57,54.3,23.1,58.88,24.38l-4.47-5S45.09,8.33,44.94,8,36,9.14,34.79,9.34c.05.18-.3,1.19-2.81,5.63-3.76,6.64-1.65,7-1.65,7L27,30.3l-.26,8.85,2.78,6.58,5.81,2.47,9.31-1.33s15.8-1.14,16.72-1.7,4.64-6.12,3.76-10C65.48,33.92,65.63,32.52,65.21,33.28Z" fill="#6a6182" opacity="0.21" style="mix-blend-mode:multiply"/><path d="M40.52,25.41c2.65-.76,6.53,2,8,4.38s.72,2.46-.82,1.95-3.14.57-1.6,1.18,1.08,1.29-2.36,2.47S37.27,39.3,37,34.06,37.84,26.18,40.52,25.41Z" fill="#6a6182" opacity="0.21" style="mix-blend-mode:multiply"/><path d="M37.35,21.32c2.63-1.33,4-2.16,9.88-1.46,2.37-3.81,1.93-6.18,1.36-6.8s-1.75-3.18-2.72-3.85a26.3,26.3,0,0,0-5.66-2.52c-.67,0-4.63.41-5.71,1.64s-3.24,6.54-3.09,7.2,1.18,1.6,1.85,2.73S37.35,21.32,37.35,21.32Z" fill="#6a6182" opacity="0.47" style="mix-blend-mode:multiply"/><path d="M41.47,28.29c.1,1.75-4.79,8-8,10a3.79,3.79,0,0,1-2.21-2.83s7.25-6.28,8.64-7.1C41,28,41.47,28.29,41.47,28.29Z" fill="#fffbf2" stroke="#6a6182" stroke-miterlimit="10" stroke-width="0.27"/><path d="M39.87,25.82a1.88,1.88,0,0,1,2.78.62c.62.93-.72,2.27-1.13,2.47s-1.65.1-1.85-.46S39.31,26.34,39.87,25.82Z" fill="#f0ede8"/></g><path d="M54.87,49.54c-.52,1.33-2.73,1.65-2.78,0s.21-3.19-.72-3.6-.15-1,.15-3.7.47-3.14,1.55-3.71,1.75-2,2.78-1.64.46,4.06.1,7.71S55.23,48.61,54.87,49.54Z" fill="#212121"/><g clip-path="url(#abc62caf-fa60-4278-8a75-4db8ad73b04b)"><path d="M53.53,37.14c1.18-.77,1.85.93,1.44,5.1S54.1,50.57,52,50.78c1.39,2.26,6,.3,5.86,0s.78-12,.78-12-1.44-4.07-2.27-4.22A5.72,5.72,0,0,0,54.1,35Z"/><path d="M53.57,50.2c-.5,0-.76-.23-.78-.67s0-.67,0-1c0-1.33,0-2.57-1.19-3-.26-.1-.27-.1,0-.94a13.81,13.81,0,0,0,.52-2.29c.37-2.66.55-2.9,1.57-3.35.55-.24.87-.86,1.28-1.18a2.3,2.3,0,0,1,1.41-.47l.2,0s.34.14.34,1.62a41.13,41.13,0,0,1-.39,4.1c-.07.5-.13,1-.19,1.52-.36,3-.72,3.74-1.07,4.42l-.2.39A1.69,1.69,0,0,1,53.57,50.2Z"/></g><path d="M64.63,28.38c1.06-1.34,3.09-1,6.06,1.66s3.46,4.46,2,5.91-2.82,2.12-4.44.69a8.17,8.17,0,0,1-2-2.2s-.69.39-1.77-.46C63.1,32.9,63.09,30.35,64.63,28.38Z" fill="#595072"/><g clip-path="url(#aa91edb9-f371-4fbc-be82-19f607c90219)"><path d="M64.28,27.65c2.28.27,6.76,4.05,7.53,6.56s-1.08,3.43-2.63,3.36c2.13,2,6.41,1,6.45.73s1-2.62,1-2.62l-.08-3.51s-.11-2.44-.61-2.9-3.4-2.51-3.4-2.51-4.63-1.27-5.25-1.27S64.28,27.65,64.28,27.65Z" fill="#595072" opacity="0.2" style="mix-blend-mode:screen"/><path d="M64.36,27.77c1.85-.43,4,.09,2.86,2.62-1.51,3.32-4.6,5-5.14,2.39S64.36,27.77,64.36,27.77Z" fill="#6a6182" opacity="0.75" style="mix-blend-mode:multiply"/><g clip-path="url(#b422e424-310e-4fdd-9a1f-8e3eb9e91f96)"><path d="M62.7,28.5a5.22,5.22,0,0,1,5.21,3.05c-.66,3.08-4.17,4.63-4.51,4.59s-.85-1.2-1.39-1.74-.85-2.51-1-2.89S62.7,28.5,62.7,28.5Z" fill="#efd5b8"/></g></g><path d="M42,21.14c-1.1-1-1.08-2.16-.77-4.27s1.64-6.79-3.66-7.35c-1.54,1-2.67,5.14-1.08,7.76s3.27,4.71,2.19,5.53c-.21-1-.59-1.72-2.08-3.42s-4.17-4-3.5-6.74S37.38,8,40.36,7.56s6.48,2.21,7.72,7a8.61,8.61,0,0,1-.41,5.91,42.39,42.39,0,0,0,4.94-1.64c2.52-1,4.27-2.52,4.78-1.8s1,1.33,1.18,1.64.21.31-1.39,1.5a13.38,13.38,0,0,1-5.76,2.41C48.18,23.15,44.12,23,42,21.14Z" fill="#292854"/><g clip-path="url(#ec47079f-b325-40aa-ae3c-0d901cf0ba39)"><path d="M46.23,8.38c2.36,3,1.69,6.49-2.16,6.23s-4.22,0-6.33-1.34.41-3.5.41-3.5-1.44-1-5,.62C32,6.84,36.55,3.6,36.55,3.6s8.85-.26,9.57.1S46.23,8.38,46.23,8.38Z" fill="#595072" opacity="0.2" style="mix-blend-mode:screen"/><path d="M38.05,9.67c-1.24-.46-3.86-.41-5.71,3.45S34,26.65,34,26.65l3.81-.77,2.67-2.22.26-2.77-1-3.81Z" fill="#6a6182" opacity="0.55" style="mix-blend-mode:multiply"/><path d="M57.54,16.1c-3.34,1.49-8.38,5.4-15.94,4.84C41,26,47.72,25.52,47.72,25.52l4.89-.16a54.47,54.47,0,0,0,6-2.21,10,10,0,0,0,2.27-2.78c-.05-.31-.11-1.85-.62-2.26S57.54,16.1,57.54,16.1Z" fill="#6a6182" opacity="0.55" style="mix-blend-mode:multiply"/></g><path d="M47,20a41.64,41.64,0,0,1-7.59-.82l0-.45c5.39-2,6-5.83,5.87-9.38a1,1,0,0,1,.48.55c.06,3.22-.71,6.9-5.44,9a32.71,32.71,0,0,0,7.89.62A2.08,2.08,0,0,1,48,20C47.8,20,47.46,20,47,20Z" fill="#6a6182"/><path d="M38.32,21.66,38,21.29a3.54,3.54,0,0,0,.89-1.91,4.56,4.56,0,0,1-2,.5c-.08,0-.41-.6-.41-.6.71.37,2.36-.29,2.88-.56l.08.29C39.45,19.09,39.21,21,38.32,21.66Z" fill="#6a6182"/><path d="M39.32,19C36,21.53,29.45,32.56,27.76,41.16" fill="none" stroke="#6a6182" stroke-miterlimit="10" stroke-width="1.63"/><path d="M24.57,34.11C27.81,27.21,39,19.16,39,19.16" fill="none" stroke="#6a6182" stroke-miterlimit="10" stroke-width="1.63"/><path d="M13.51,83c-.78.61-1,1.28-2,1.26-1.75,0-3.33-.09-3.33,1.68a11.09,11.09,0,0,1-.52,4.29C7.15,91.46,7,92.55,7.46,93c0,1.08,0,1.7.65,1.79a.52.52,0,0,0,.21.59.88.88,0,0,0,.45.11s0,.48.51.35a.51.51,0,0,0,1-.09c.4.51,1.22.31,1-.61a7.72,7.72,0,0,1,.35-3.21c.25-.77,1-2.77,1.35-3.69s6.55-5.76,6.55-5.76-.16-.21-2-.08A33.23,33.23,0,0,0,13.51,83Z" fill="#e6ba87"/><g clip-path="url(#eed814c6-0241-4f52-8b5a-f484de75917b)"><path d="M10.47,93.8a10.54,10.54,0,0,1-.08,1.38,5.58,5.58,0,0,1-.13.69,1.3,1.3,0,0,1-.34.63.06.06,0,0,1-.09,0,.09.09,0,0,1,0-.1h0a1.3,1.3,0,0,0,.33-.56,5,5,0,0,0,.16-.67A10.42,10.42,0,0,0,10.47,93.8Z" fill="#cda260"/><path d="M9.82,94.28a2.76,2.76,0,0,1-.16,1,2.27,2.27,0,0,1-.23.47.85.85,0,0,1-.41.36.08.08,0,0,1-.09,0A.07.07,0,0,1,9,96H9a.69.69,0,0,0,.37-.29,2.3,2.3,0,0,0,.25-.43A2.69,2.69,0,0,0,9.82,94.28Z" fill="#cda260"/><path d="M9.14,94.07a3.92,3.92,0,0,1-.09,1,1.1,1.1,0,0,1-.25.46.82.82,0,0,1-.49.22.06.06,0,0,1-.07,0s0-.07.06-.08h0a.68.68,0,0,0,.43-.17.88.88,0,0,0,.25-.4A3.73,3.73,0,0,0,9.14,94.07Z" fill="#cda260"/><path d="M8.44,93.6a2.17,2.17,0,0,1-.09.8,1.33,1.33,0,0,1-.18.38.67.67,0,0,1-.35.26.06.06,0,0,1-.08,0,.08.08,0,0,1,0-.09h0a.52.52,0,0,0,.3-.19,1.45,1.45,0,0,0,.2-.34A2,2,0,0,0,8.44,93.6Z" fill="#cda260"/></g><path d="M51.86,45.79c-2.93.92-11.32.84-17.72,0" fill="none" stroke="#6a6182" stroke-linecap="round" stroke-linejoin="round" stroke-width="1.88"/><path d="M39.06,46.22c.93-1.32,3.22-1.68,3.51-.61C43,47.28,39.06,46.22,39.06,46.22Z" fill="none" stroke="#6a6182" stroke-linecap="round" stroke-linejoin="round" stroke-width="1.63"/><path d="M41.85,48.55a5,5,0,0,1-2.94-2.15" fill="none" stroke="#6a6182" stroke-linecap="round" stroke-linejoin="round" stroke-width="1.63"/><path d="M39.06,46.22c-.94-1.32-3.23-1.68-3.52-.61C35.1,47.28,39.06,46.22,39.06,46.22Z" fill="none" stroke="#6a6182" stroke-linecap="round" stroke-linejoin="round" stroke-width="1.63"/><path d="M36.26,48.55A5,5,0,0,0,39.2,46.4" fill="none" stroke="#6a6182" stroke-linecap="round" stroke-linejoin="round" stroke-width="1.63"/></g></g></svg>