<svg xmlns="http://www.w3.org/2000/svg" xmlns:xlink="http://www.w3.org/1999/xlink" viewBox="0 0 461.28 348.61"><defs><clipPath id="a4d12a83-184a-4620-b40e-8dfd9d688258" transform="translate(25.29 12.28)"><path d="M175.5,41.19c-5.73-2-41.11-14.14-51.33-17.17S71.92,6.94,71.92,6.94a15.38,15.38,0,0,1-4.76-1C64.43,4.92,63,4.7,62.7,3.59a2.46,2.46,0,0,1,.16-1.75A2.53,2.53,0,0,1,63.75.32c.88-.74,2.18-.06,5,.71A15.7,15.7,0,0,1,73.2,3s42.33,13.12,52.39,16.61,45.91,14.28,51.71,16,14.5,3.53,19.77,5.35,16.42,6.69,16.42,6.69l52.44,16.88c2,.63,1.81,1.86,1.81,1.86l-.38,1.2-.06.18-.39,1.2s-.6,1.08-2.56.45L211.91,52.53S200,50,194.68,48.38,181.23,43.15,175.5,41.19Z" style="fill:#edd57e"/></clipPath><clipPath id="b1bb126b-c881-44f8-8bfa-f323ca285c83" transform="translate(25.29 12.28)"><path d="M404.49,214.62c4.34,0,7.45,6.33,10.57,13.38,2.71,6.13,5,10.3,6.1,14.36a30.19,30.19,0,0,1,.59,3.53s1.44,3.43-.91,4.34c.55,1.71-.18,2.8-1.26,3,.54,1.89-1.72,3.52-3.16,2.35a2.12,2.12,0,0,1-3.44,2.26c-.9,1.08-4.15,2.17-5.42-.91s-2-4.24-2.35-7.14-.63-7.68-1.17-10.75-4.07-10.75-5.24-13S404.49,214.62,404.49,214.62Z" style="fill:#f0d6b8"/></clipPath><clipPath id="f780c36e-a00f-4f19-90d3-2355a2f86cad" transform="translate(25.29 12.28)"><path d="M347.83,119.83c21,17.35,59.64,62.89,77.35,87.65-1.81,16.45-13.55,45.19-28.19,54.22-15.36,7.23-25.12-2.53-29.46-8.13-6.91-5.7-19.08-36.79-29.46-64.16-7.05,29.64-30.18,74.64-30.18,74.64s-23.68.73-50.79-33.43c-1.8-2.17-1.26-4.16,1.45-11.93s10.84-28,10.84-28-7.59-15.9-4.34-27.65,16.81-24.76,35.25-32.17C325.6,124.35,347.83,119.83,347.83,119.83Z" style="fill:#383761"/></clipPath><clipPath id="f0069c1e-31be-4257-8118-0ee03f65fca4" transform="translate(25.29 12.28)"><path d="M344.22,91.82c0-11.61-4-35.61-12.29-40.13S319.09,49,317.47,44.28s-10.3-9.39-13.38-11.38-16.26-1.63-17.17,6.5c1.63,6.87.37,8.14-6.14,7.78s-15.9-1.27-15.9-1.27L246.26,38.5c-15,.9-21.33,2.71-11.93,11.39s20.24,17.89,23.86,21.68,1.62,7.78,9.58,12.47a119.94,119.94,0,0,1,12.29,8.14s0,14.82,4.7,24.58,6.86,12.29,19.15,12.83,37.23-4.34,39.58-11.39S344.22,98.68,344.22,91.82Z" style="fill:#383761"/></clipPath><clipPath id="a2dc4047-eab6-4dfc-9206-5820429c6370" transform="translate(25.29 12.28)"><path d="M236.86,31.27c7.59,4.88,15.54,15.73,16.09,19s-10.3,8.13-17.89,2.53c19.87,16.81,39.75,25.3,46.08,21.69,4.45-2.54,54.56-14.22,52.77-22.78-.75-3.61-48.14-4-51.69-7.23C273.92,36.91,236.86,31.27,236.86,31.27Z" style="fill:#383761"/></clipPath><clipPath id="aa03d17a-d53f-44f5-afa1-298548ebf604" transform="translate(25.29 12.28)"><path d="M338.61,60.55c-8.92-4.09-25.12-.36-31.08,1.81a328.32,328.32,0,0,0-39.4-3.44c-9.94-.36-10.44,8.42,1.81,15.91a119.36,119.36,0,0,0,44.45,15.72c14.46,1.81,25.45-3.92,28.2-4.88,7.23-2.53,7.59-6.33,7.23-13.37S343,62.54,338.61,60.55Z" style="fill:#383761"/></clipPath><clipPath id="eb709538-c349-459e-93fe-61f82e6e2580" transform="translate(25.29 12.28)"><path d="M310.6,34.16c-1.45,13.2-5.6,24.4-7.77,26s-13.2,1.08-14.64-.54c-2.4-2.7-2.17-7.59-3.8-14.82s-.72-11.57-.72-11.57l19-5.06Z" style="fill:#292854"/></clipPath><clipPath id="e2925123-8e0d-4259-bf2f-33b5af2d7b95" transform="translate(25.29 12.28)"><path d="M344,86.76c2.75-.35,4.58,2.42,6.51,9.76,2.35,8.94,2.21,13.55,1.54,17.21-.76,4.09-3.71,15.32-28.47,20.38s-35.06-.69-38.31-8.5c-4.52-10.84-7.5-21.23-6.15-22.45,2.29-2.06,2.85,1.62,5.29-.54,2.06-1.84,2.53-6.83,8.13-5.56s17.15,1,24.88-2.58c1.55.14,3.26,0,4.6-.06,4.47-.07,7,2,9.69,3.72,3.66,2.31,8.86,2,10-3.66C342.72,90,341.14,87.12,344,86.76Z" style="fill:#212121"/></clipPath><clipPath id="aa4c9e38-4ada-4d7a-ba2d-91987244d418" transform="translate(25.29 12.28)"><path d="M222.09,40c-5.42-.27-7.46.68-7.46.68A10.4,10.4,0,0,0,210,44.49c-.79,1.19,3.32,4.37,3.12,6.26-.16,1.52-5,1.34-5,2.75,0,4.49,1.42,8.22,7.19,10.08,8.95.4,13.15-2.17,13.28-4.75s-.81-2.71-3-2.44a5.9,5.9,0,0,1-2.71,0l2.71-3.79s9.49,2.84,13.15,3.79c1.22-3.11,5.56-9.21,8.27-11.11s2.17-5-2.17-8.68-6.37-3.52-10.57-1.76S222.09,40,222.09,40Z" style="fill:#595072"/></clipPath><clipPath id="bac84c69-9ea3-49fd-b4b4-812f0637b64a" transform="translate(25.29 12.28)"><path d="M289.27,57.48l-24.94-.18s-9-5.42-14.82-4.34S238,57.12,238.13,63.26c.5,5.74,2.34,6.51,4.42,8.58,2.58,2.58,7.69,6.76,11.93,6.11,5.29-.82,7.14-3.12,7.14-3.12l26,9.21Z" style="fill:#595072"/></clipPath><clipPath id="a459781b-907e-4d0c-8916-fd73bc7f136e" transform="translate(25.29 12.28)"><path d="M296.05,231.16c2.35,6,1.72,14.1-4.25,12.83S281,240.38,275,241.82a19,19,0,0,1-12.47-.9c-2.9-1.09-3.26-3.07-2.35-4.16-2.17-.9-1.09-2-1.09-2a2,2,0,0,1,1.81-2.53c2.35-.36,3.43,2.9,7.05,1.81s13.91-5.87,13.91-5.87l3.26.27C289.45,228.81,296.05,231.16,296.05,231.16Z" style="fill:#f0d6b8"/></clipPath><clipPath id="ac3bd115-d6db-47ef-a9d3-f7551caed286" transform="translate(25.29 12.28)"><path d="M218,35.65v0Zm6,21.42c-1,1.36-23.59,11-23.59,11l-4.61-6.37s-.41-5.83-1.08-7.59S198,42.84,198,42.84l7.32-6.51c12.64.88,12.8-.44,12.75-.65C218.23,36.27,224.92,55.74,224,57.07ZM209.28,45.82l-4.95-1.62-1.83,6.23s1.74.32,5.54,1.26a3.28,3.28,0,0,0,3.14-1.31C212.1,49,211.56,46.84,209.28,45.82Z" style="fill:none"/></clipPath><clipPath id="f87ab729-71c1-4a97-80f8-154b2725fdba" transform="translate(25.29 12.28)"><path d="M282.1,21.61c-.72,11.88,4.9,21.94,12.57,22.47s14.47-8.66,15.19-20.54S305,1.61,297.29,1.07,282.82,9.73,282.1,21.61Z" style="fill:none;stroke:#d9d9d9;stroke-miterlimit:10;stroke-width:1.4431200000000002px"/></clipPath><clipPath id="b7a48b16-9d92-4663-8f14-0465c86bdf51" transform="translate(25.29 12.28)"><path d="M183.37,258.27c3.25,2,5.64,3.61,8.22,4.15s2.71,2.44,2.71,2.44a3.36,3.36,0,0,1,.41,3.12c-.86,1.76-4.34,2.58-7.19,1.63s-12.87-.95-16.8,0-8.5,2.12-12.34.54c-5-2.08-3.39-9.89,6.78-13A25.66,25.66,0,0,1,183.37,258.27Z" style="fill:#f0d6b8"/></clipPath><clipPath id="b1a36134-e0be-45f0-9290-56cb3c1e8016" transform="translate(25.29 12.28)"><path d="M261.45,82.91c5.32-1.59,38.17-11.4,47.4-14.6s48-15.14,48-15.14A14.16,14.16,0,0,1,361,51.4c2.57-.71,3.77-1.33,4.57-.65a2.25,2.25,0,0,1,.81,1.4,2.24,2.24,0,0,1,.15,1.6c-.26,1-1.59,1.21-4.1,2.13a14.17,14.17,0,0,1-4.36.93s-38.54,12.8-47.91,15.57S268.33,86.23,263.09,88s-12.69,5.12-17.59,6.56-15.8,3.78-15.8,3.78l-48.08,15.39c-1.8.58-2.35-.41-2.35-.41l-.35-1.1,0-.17-.36-1.1s-.12-1.13,1.67-1.7l48.09-15.39s10.22-4.44,15-6.1S256.13,84.49,261.45,82.91Z" style="fill:#edd57e"/></clipPath><clipPath id="bdda5325-9515-499a-9bf3-f31504727dc7" transform="translate(25.29 12.28)"><path d="M230.54,95.45h0a.88.88,0,0,1,.05.15,1.42,1.42,0,0,1,0,.16h0c1.14,3.56,1.85,6.11,1.75,7.92-.63-.33-.88-1.12-1.84-2.47s-1.82-2.43-1.82-2.43a7.07,7.07,0,0,0-.4-2.36h0a.24.24,0,0,1,0-.08l0-.08h0a7.15,7.15,0,0,0-1.05-2.16s.08-1.37.07-3-.26-2.46.07-3.08C228.5,89.4,229.4,91.89,230.54,95.45Z" style="fill:#edd57e"/></clipPath><clipPath id="bb123799-8a2c-432a-a7f2-ff5f74526e7c" transform="translate(25.29 12.28)"><path d="M159.33,162.93c6.78,2.44,12.47,1.36,19.52-1.35s13.82,2.71,19.25,11.65,2.71,10,.81,14.37c-3.25,20.61-.81,54.49-14.64,73.47-19.52,6.78-22,6.23-22,6.23L158.79,289s-13.22,13.75-61.27,20.33c-59.37,8.14-97-17.08-97-17.08s7.86-17.35,28.73-40.39,30.64-31.44,30.64-31.44-2.17-19,14.37-38.5,23.31-26.84,23.31-26.84,24.13-7.32,44.46-6.78S159.33,162.93,159.33,162.93Z" style="fill:#383761"/></clipPath><clipPath id="ba5f52f3-e33a-4f02-a950-e8e6cfb1560a" transform="translate(25.29 12.28)"><path d="M145.51,145.31c11.11,6.24,16-3.25,13.82,42.56a477.67,477.67,0,0,0,3.25,82.69l-1.08,33.07s-.54,7.05-16.81,16.54-58.56,15.72-58.56,15.72L33,328.3-.07,319.35-15.8,301.73s-3-15.18-3-17.62S8.06,225,8.06,225l25.21-50.15,39.31-29Z" style="fill:none"/></clipPath><clipPath id="afbfcd4b-ede4-43f4-baea-6acda30c5e76" transform="translate(25.29 12.28)"><path d="M165,150.73C132.22,167.81,62.55,216.61,55.5,224.2c-21.42-13.55-20.88-40.66-20.88-40.66L63.9,150.73l46.9-23,49.88-4.61Z" style="fill:#6a6182;opacity:0.2;mix-blend-mode:multiply"/></clipPath><clipPath id="fa0965d2-9c70-4f59-87a5-531fc6567f84" transform="translate(25.29 12.28)"><path d="M133.58,139.89c-20.88,16.27-53.41,36.33-58,40.66-7.09,7.14-12.38,18.71-14.1,25.21-8.94-6.23-16-17.61-10.84-22.22s22-6.51,31.72-14.64,15.72-21.69,15.72-21.69Z" style="fill:#383761"/></clipPath><clipPath id="b9cd52e7-62b0-49fc-a133-04138bdcc01b" transform="translate(25.29 12.28)"><path d="M170,133c-.84,5.48-14.09.18-14.09.18s-25.31-8.31-36.51-2-21.15,11.93-27.83,5.61-4.88-25.3-4.7-41.57.36-17.89,19.33-25.12c8-2.35,7-7.41,1.63-12.29S92.1,34.89,101,25.67s25.49-10.3,33.62,5.24,6.51,23.13,5.06,30.18c21.87,4,26,5.6,35.24,11.93S198.73,83.5,198.73,83.5s10.48-4.15,6.69,12.65-5.43,18.26-7,19.16-11-.9-18.8-.9-10.84,1.62-10.12,6.68A48.41,48.41,0,0,1,170,133Z" style="fill:#383761"/></clipPath><clipPath id="bfca2bc8-1145-4cc7-870e-3bead5952857" transform="translate(25.29 12.28)"><path d="M167.46,161.76c-1.81,4.66-9.58,5.78-9.76,0s.73-11.21-2.53-12.65-.54-3.62.54-13,1.63-11,5.43-13,6.14-7,9.76-5.78,1.62,14.28.36,27.11S168.73,158.5,167.46,161.76Z" style="fill:#212121"/></clipPath><clipPath id="fc89e260-752a-4d19-91e6-eb65f2fd8b91" transform="translate(25.29 12.28)"><path d="M201.76,87.43c3.71-4.73,10.84-3.52,21.28,5.83S235.18,108.92,230,114c-4.75,4.61-9.9,7.46-15.59,2.44s-6.91-7.73-6.91-7.73-2.44,1.36-6.24-1.62C196.38,103.29,196.33,94.35,201.76,87.43Z" style="fill:#595072"/></clipPath><clipPath id="b5f7c0ac-ab8c-4a83-a59e-2063469a7a15" transform="translate(25.29 12.28)"><path d="M200.81,85.26c6.5-1.49,14.06.33,10,9.22-5.29,11.66-16.13,17.49-18,8.41S200.81,85.26,200.81,85.26Z" style="fill:#6a6182;opacity:0.75;mix-blend-mode:multiply"/></clipPath><clipPath id="a05850ff-7ea4-4ed8-981b-345d0077ea34" transform="translate(25.29 12.28)"><path d="M122.28,62c-3.87-3.4-3.79-7.59-2.71-15s5.78-23.86-12.83-25.85c-5.42,3.62-9.4,18.07-3.8,27.29S114.42,65,110.62,67.87c-.72-3.43-2.08-6.06-7.32-12S88.66,41.75,91,32.18s15-16.45,25.49-17.9,22.77,7.77,27.11,24.58c3.07,12.83-1.45,20.79-1.45,20.79a150.23,150.23,0,0,0,17.35-5.79c8.86-3.61,15-8.85,16.81-6.32s3.43,4.7,4.15,5.78.73,1.08-4.88,5.24a47,47,0,0,1-20.24,8.5C144,69,129.69,68.5,122.28,62Z" style="fill:#292854"/></clipPath><clipPath id="f6a47e96-c459-4835-ad58-119a224b72cf" transform="translate(25.29 12.28)"><path d="M22.16,279.32c-2.72,2.17-3.44,4.52-7.06,4.43-6.15,0-11.69-.32-11.69,5.92s-.07,10.73-1.82,15.05-2.18,8.13-.67,9.69c0,3.76.13,5.95,2.28,6.25a1.86,1.86,0,0,0,.73,2.1,3.19,3.19,0,0,0,1.59.39s-.06,1.67,1.79,1.21a1.79,1.79,0,0,0,3.42-.31c1.38,1.78,4.28,1.08,3.6-2.14s.36-8.59,1.23-11.28,3.37-9.73,4.74-12.94,23-20.27,23-20.27-.54-.72-7-.27A118.39,118.39,0,0,0,22.16,279.32Z" style="fill:#e6ba87"/></clipPath></defs><g style="isolation:isolate"><g id="ac8e5fb2-3bf3-44b1-b763-d693ce38ff81"><path d="M323.07,29.28c.54,2.17,8.13,42.84,26,47.72" transform="translate(25.29 12.28)" style="fill:none;stroke:#61577a;stroke-miterlimit:10;stroke-width:1.6265600000000002px"/><path d="M322.53,26.57c6,28.74,26.56,42.29,27.92,42.93" transform="translate(25.29 12.28)" style="fill:none;stroke:#6a6182;stroke-miterlimit:10;stroke-width:1.6265600000000002px"/><path d="M282.59,20.25c-.73,14.82.54,28.19-17.71,25.66,23.49,10.48,30.54,6.15,30.54,6.15a43.2,43.2,0,0,0,1.26-8.32c.37-5.24,15-30.18,14.46-31.81-.23-.68-2.53-11.92-14.46-10.48C289.62,2.31,283.31,5.43,282.59,20.25Z" transform="translate(25.29 12.28)" style="fill:#010034"/><path d="M175.5,41.19c-5.73-2-41.11-14.14-51.33-17.17S71.92,6.94,71.92,6.94a15.38,15.38,0,0,1-4.76-1C64.43,4.92,63,4.7,62.7,3.59a2.46,2.46,0,0,1,.16-1.75A2.53,2.53,0,0,1,63.75.32c.88-.74,2.18-.06,5,.71A15.7,15.7,0,0,1,73.2,3s42.33,13.12,52.39,16.61,45.91,14.28,51.71,16,14.5,3.53,19.77,5.35,16.42,6.69,16.42,6.69l52.44,16.88c2,.63,1.81,1.86,1.81,1.86l-.38,1.2-.06.18-.39,1.2s-.6,1.08-2.56.45L211.91,52.53S200,50,194.68,48.38,181.23,43.15,175.5,41.19Z" transform="translate(25.29 12.28)" style="fill:#edd57e"/><g style="clip-path:url(#a4d12a83-184a-4620-b40e-8dfd9d688258)"><path d="M202.88,67l67.59,21.76,11.69-36.3L214.57,30.65Zm8.24-15.81A1.5,1.5,0,1,1,212,48.3c1.59.52,4.53,1.78,5.12,3.22C215.84,52.35,212.72,51.67,211.12,51.15Z" transform="translate(25.29 12.28)" style="fill:#f0ede8"/><polyline points="235.04 61.45 100.2 18.03 96.47 18.36" style="fill:none;stroke:#fff;stroke-miterlimit:10;stroke-width:0.363222px"/><line x1="97.62" y1="15.6" x2="100.14" y2="18.01" style="fill:none;stroke:#fff;stroke-miterlimit:10;stroke-width:0.363222px"/><rect x="54.06" y="-7.36" width="22.16" height="16.22" transform="translate(69.75 74.8) rotate(-72.16)" style="fill:#f0ede8"/><polygon points="136.76 33.47 136.64 33.44 136.65 33.43 134.84 32.73 135.39 31 134.49 29.06 136.36 28.01 136.91 26.28 138.79 26.77 138.8 26.76 138.91 26.8 139.03 26.83 139.02 26.85 140.83 27.54 140.28 29.27 141.18 31.21 139.31 32.27 138.76 33.99 136.88 33.5 136.87 33.52 136.76 33.47" style="fill:#f0ede8"/></g><path d="M404.49,214.62c4.34,0,7.45,6.33,10.57,13.38,2.71,6.13,5,10.3,6.1,14.36a30.19,30.19,0,0,1,.59,3.53s1.44,3.43-.91,4.34c.55,1.71-.18,2.8-1.26,3,.54,1.89-1.72,3.52-3.16,2.35a2.12,2.12,0,0,1-3.44,2.26c-.9,1.08-4.15,2.17-5.42-.91s-2-4.24-2.35-7.14-.63-7.68-1.17-10.75-4.07-10.75-5.24-13S404.49,214.62,404.49,214.62Z" transform="translate(25.29 12.28)" style="fill:#f0d6b8"/><g style="clip-path:url(#b1bb126b-c881-44f8-8bfa-f323ca285c83)"><path d="M411,250.68a6.53,6.53,0,0,0,.76,2,11.07,11.07,0,0,0,1.21,1.82,2.85,2.85,0,0,1-.65,4.12.23.23,0,0,1-.32-.1.23.23,0,0,1,.09-.31h0a2.17,2.17,0,0,0,1.09-1.6,2.3,2.3,0,0,0-.42-2,12.2,12.2,0,0,1-1.13-1.9A6.83,6.83,0,0,1,411,250.68Z" transform="translate(25.29 12.28)" style="fill:#cda260"/><path d="M414.11,250.5a9.46,9.46,0,0,0,.56,1.88,9.83,9.83,0,0,0,.89,1.74c.37.51.84,1,1.18,1.59a4.81,4.81,0,0,1,.77,1.91.25.25,0,0,1-.2.26.24.24,0,0,1-.27-.2v0h0a4.38,4.38,0,0,0-.6-1.77c-.3-.58-.71-1.07-1.08-1.64a9.58,9.58,0,0,1-.8-1.83A9.91,9.91,0,0,1,414.11,250.5Z" transform="translate(25.29 12.28)" style="fill:#cda260"/><path d="M416.73,249a11.6,11.6,0,0,0,1.39,2.42,7.37,7.37,0,0,0,1.95,1.91.23.23,0,0,1,.08.32.24.24,0,0,1-.32.08l0,0a7.57,7.57,0,0,1-1.88-2.16A11.64,11.64,0,0,1,416.73,249Z" transform="translate(25.29 12.28)" style="fill:#cda260"/><path d="M418.63,245.8a9.45,9.45,0,0,0,1.08,2.77,6,6,0,0,0,.87,1.18,2.5,2.5,0,0,0,1.15.75.23.23,0,0,1-.12.45h0a3.06,3.06,0,0,1-1.28-1,6.28,6.28,0,0,1-.81-1.3A9.58,9.58,0,0,1,418.63,245.8Z" transform="translate(25.29 12.28)" style="fill:#cda260"/></g><path d="M347.83,119.83c21,17.35,59.64,62.89,77.35,87.65-1.81,16.45-13.55,45.19-28.19,54.22-15.36,7.23-25.12-2.53-29.46-8.13-6.91-5.7-19.08-36.79-29.46-64.16-7.05,29.64-30.18,74.64-30.18,74.64s-23.68.73-50.79-33.43c-1.8-2.17-1.26-4.16,1.45-11.93s10.84-28,10.84-28-7.59-15.9-4.34-27.65,16.81-24.76,35.25-32.17C325.6,124.35,347.83,119.83,347.83,119.83Z" transform="translate(25.29 12.28)" style="fill:#383761"/><g style="clip-path:url(#f780c36e-a00f-4f19-90d3-2355a2f86cad)"><path d="M319.46,119.11c1.62,21.14-.73,73-9.58,96s-16.09,30-16.09,30l-3.61,14.28,9.4,8.5,19.51-.37,11.75-13.91,7.59-60.18s-13.19-66.51-14.64-71.21S319.46,119.11,319.46,119.11Z" transform="translate(25.29 12.28)" style="fill:#22264a;opacity:0.35000000000000003"/><path d="M336.62,117.84c18.8,27.11,58.56,121.81,60.73,145.85-34,10.48-36,9.58-36,9.58s-12.46-38-14.27-42.65-8.86-39.4-8.86-39.4l-14.1-70.13Z" transform="translate(25.29 12.28)" style="fill:#22264a;opacity:0.52"/><path d="M397.17,168.81c8.31,18.79,15.18,60.72,15.36,70.3s17-18.43,17-18.43,6.32-2.71,5.78-6.15,2.17-15.54-.54-18.43-18.25-28.74-23.31-30.55S397.17,168.81,397.17,168.81Z" transform="translate(25.29 12.28)" style="fill:#6a6182;opacity:0.2;mix-blend-mode:multiply"/><path d="M364.82,121.82c18.25,25.48,25.12,48.79,22.77,50.42s-13-11.57-21.15-22.59S337.17,118,337.17,118l17.53-7Z" transform="translate(25.29 12.28)" style="fill:#6a6182;opacity:0.2;mix-blend-mode:multiply"/><path d="M329,113.87c15.46,36.32,42.29,121.17,45.28,143.4s-9.49,13.83-11.12,13-7.59-14.37-11.11-19.79S342.59,221,342.59,221L338,194.38s-14.37-69.4-14.91-74.55S329,113.87,329,113.87Z" transform="translate(25.29 12.28)" style="fill:#6a6182;opacity:0.2;mix-blend-mode:multiply"/><path d="M324.15,269.83l-15,2.36s3.08-2.17,3.26-10.85-.55-17.89-4.16-22.23-7.23-13.37-8.31-30.54-15.35-40.11-13.2-53.5c4.88-30.36,26.57-42.83,26.57-42.83l10.12,8.31,16.09,76.27-2.71,60.54Z" transform="translate(25.29 12.28)" style="fill:#6a6182;opacity:0.2;mix-blend-mode:multiply"/><path d="M254.39,229.53c5.42-8.31,16.63-11.2,23.32-4.88s4.7,1.81,15.72,5.6,14.64,7.23,10.12,9.76-11,5.43-6.14,8.14S311.14,265,307,266.22s-22.05.72-25.12.36-10.12-3.25-10.12-3.25-5.42-.36-11-9.58-4.34-7.05-4.34-7.05Z" transform="translate(25.29 12.28)" style="fill:#22264a"/></g><path d="M347.65,117.3c4.52,2.89,26,23,29.28,26s4.36,4,1.8,8.14c-4.83,7.81-5,10.93-13,3.34s-27.16-29.37-27.16-29.37Z" transform="translate(25.29 12.28)" style="fill:#383761"/><path d="M293.79,125.79c-9.23,4-21,10-26.74,13-3.08,1.63-3.21,2.17-2.26,3.67,3.72,5.84,4.33,6.64,11,2.44s25.62-14.51,25.62-14.51Z" transform="translate(25.29 12.28)" style="fill:#1e1f3a"/><path d="M320.22,120.64c4.21,10.57,14.64,38.5,16.95,43.78s6.64,1.9,11.92,0,12.07-3.66,10.31-7.31c-1.59-3.29-19.12-37.69-19.12-37.69Z" transform="translate(25.29 12.28)" style="fill:#1e1f3a"/><path d="M299.75,123.22c-4.2,13.82-9.75,34-9.75,34s-1.36,4.34,3.66,5.42c6.68,1.45,16.13,2.58,22.5,3.26s6.37-.68,7-9.09-.82-33.88-.82-33.88Z" transform="translate(25.29 12.28)" style="fill:#383761"/><path d="M344.22,91.82c0-11.61-4-35.61-12.29-40.13S319.09,49,317.47,44.28s-10.3-9.39-13.38-11.38-16.26-1.63-17.17,6.5c1.63,6.87.37,8.14-6.14,7.78s-15.9-1.27-15.9-1.27L246.26,38.5c-15,.9-21.33,2.71-11.93,11.39s20.24,17.89,23.86,21.68,1.62,7.78,9.58,12.47a119.94,119.94,0,0,1,12.29,8.14s0,14.82,4.7,24.58,6.86,12.29,19.15,12.83,37.23-4.34,39.58-11.39S344.22,98.68,344.22,91.82Z" transform="translate(25.29 12.28)" style="fill:#383761"/><g style="clip-path:url(#f0069c1e-31be-4257-8118-0ee03f65fca4)"><path d="M242.1,34.89c9.76,7.59,15.37,14.45,11.75,18.25S239.57,58,239.57,58l-7.23-2-8.13-11.75s.9-6.14,2.17-7.22S242.1,34.89,242.1,34.89Z" transform="translate(25.29 12.28)" style="fill:#efd5b8"/><path d="M350.18,79.89c-17,6.5-86-5.06-90-7.23-15.55,16.27,9.75,32.89,9.75,32.89L275,115.67l14.82,11.21,40.49-8,15.54-11.2s3.62-9.76,4.7-11.2,2.53-12.3,2.53-12.3Z" transform="translate(25.29 12.28)" style="fill:#18173e"/><path d="M236.86,31.27c7.59,4.88,15.54,15.73,16.09,19s-10.3,8.13-17.89,2.53c19.87,16.81,39.75,25.3,46.08,21.69,4.45-2.54,54.56-14.22,52.77-22.78-.75-3.61-48.14-4-51.69-7.23C273.92,36.91,236.86,31.27,236.86,31.27Z" transform="translate(25.29 12.28)" style="fill:#383761"/><g style="clip-path:url(#a2dc4047-eab6-4dfc-9206-5820429c6370)"><path d="M240.66,38.68c13.14,12.81,27.74,13.92,38,14.82-.36-3.61-6.24-12-5.42-11.93,4.37.35,21.24,1.78,26.39,1.45,11.2-.72,40.59,14.77,41.2,15.9,1.09,2-53.63,24.17-53.63,24.17L270.3,72.3l-14.1-2.17-10.3,9.94L230.18,62.36l-4.89-16.63-.54-8.31Z" transform="translate(25.29 12.28)" style="fill:#6a6182;opacity:0.65;mix-blend-mode:multiply"/></g><path d="M338.61,60.55c-8.92-4.09-25.12-.36-31.08,1.81a328.32,328.32,0,0,0-39.4-3.44c-9.94-.36-10.44,8.42,1.81,15.91a119.36,119.36,0,0,0,44.45,15.72c14.46,1.81,25.45-3.92,28.2-4.88,7.23-2.53,7.59-6.33,7.23-13.37S343,62.54,338.61,60.55Z" transform="translate(25.29 12.28)" style="fill:#383761"/><g style="clip-path:url(#aa03d17a-d53f-44f5-afa1-298548ebf604)"><path d="M346.93,61.27c-4.88,11.39-16.45,20.25-41.21,16.45s-51.87-11.93-51.87-11.93S253.67,84,254,86.94s8.5,13.19,10.66,14.46,23,3.61,32.36,4.69,32,.73,39.57-3.25S353.07,90,353.07,90s5.42-14.64,4-18.07S346.93,61.27,346.93,61.27Z" transform="translate(25.29 12.28)" style="fill:#6a6182;opacity:0.21;mix-blend-mode:multiply"/></g><path d="M310.6,34.16c-1.45,13.2-5.6,24.4-7.77,26s-13.2,1.08-14.64-.54c-2.4-2.7-2.17-7.59-3.8-14.82s-.72-11.57-.72-11.57l19-5.06Z" transform="translate(25.29 12.28)" style="fill:#292854"/><g style="clip-path:url(#eb709538-c349-459e-93fe-61f82e6e2580)"><path d="M304.64,24.59c-.91,7.4-3.44,32.53-2,37.41-8.32.9-9.76,2.34-10.12,1.8s-5.24-19.7-5.42-30.72S304.64,24.59,304.64,24.59Z" transform="translate(25.29 12.28)" style="fill:#4f4754;opacity:0.21;mix-blend-mode:multiply"/></g></g><path d="M298.49,9.4c11.52,1,15.54,7.78,14.28,18.8s-10.85,15.9-16.09,15.54S285.48,33.35,286,28.29s1.63-5.51,1.81-9.49S292.66,8.9,298.49,9.4Z" transform="translate(25.29 12.28)" style="fill:#f0d6b8"/><path d="M344,86.76c2.75-.35,4.58,2.42,6.51,9.76,2.35,8.94,2.21,13.55,1.54,17.21-.76,4.09-3.71,15.32-28.47,20.38s-35.06-.69-38.31-8.5c-4.52-10.84-7.5-21.23-6.15-22.45,2.29-2.06,2.85,1.62,5.29-.54,2.06-1.84,2.53-6.83,8.13-5.56s17.15,1,24.88-2.58c1.55.14,3.26,0,4.6-.06,4.47-.07,7,2,9.69,3.72,3.66,2.31,8.86,2,10-3.66C342.72,90,341.14,87.12,344,86.76Z" transform="translate(25.29 12.28)" style="fill:#212121"/><g style="clip-path:url(#e2925123-8e0d-4259-bf2f-33b5af2d7b95)"><path d="M307,132.76c-6.93,0-15.81-1.45-18.7-8.4a106.75,106.75,0,0,1-6-17.82,5.66,5.66,0,0,0,.6,0,5.5,5.5,0,0,0,3.67-1.53,11.51,11.51,0,0,0,2.15-2.87c1.12-1.88,1.41-2.07,2.14-2.07a4.48,4.48,0,0,1,1,.12,35.14,35.14,0,0,0,7.44.69c7.11,0,14.42-1.4,19.57-3.75a8.38,8.38,0,0,1,3.38-.86c2,0,3.51,1.24,5.25,2.68a25.16,25.16,0,0,0,2.52,1.9,11.61,11.61,0,0,0,6.11,1.84c4.47,0,7.86-2.9,8.84-7.58a21.45,21.45,0,0,0,.42-3.73,32.31,32.31,0,0,1,2,5.92c2.28,8.66,2.06,12.71,1.49,15.8-1.6,8.61-10.32,14.59-25.92,17.78A81.43,81.43,0,0,1,307,132.76Z" transform="translate(25.29 12.28)"/></g><path d="M345,63.85a46.52,46.52,0,0,1-13.42,6.37c-2.31.81-2.58,1.08-5-1.9S301,42.93,301,42.93s8.41-7.68,8.22-22.18C309.09,8.14,305.18.68,296.09.41c11.26-2.3,24.27,9.9,26.57,18.71s-.81,22.63-.81,22.63,18.3,17,23.72,19.12C347.33,62,346.65,62.76,345,63.85Z" transform="translate(25.29 12.28)" style="fill:#292854"/><path d="M222.09,40c-5.42-.27-7.46.68-7.46.68A10.4,10.4,0,0,0,210,44.49c-.79,1.19,3.32,4.37,3.12,6.26-.16,1.52-5,1.34-5,2.75,0,4.49,1.42,8.22,7.19,10.08,8.95.4,13.15-2.17,13.28-4.75s-.81-2.71-3-2.44a5.9,5.9,0,0,1-2.71,0l2.71-3.79s9.49,2.84,13.15,3.79c1.22-3.11,5.56-9.21,8.27-11.11s2.17-5-2.17-8.68-6.37-3.52-10.57-1.76S222.09,40,222.09,40Z" transform="translate(25.29 12.28)" style="fill:#595072"/><g style="clip-path:url(#aa4c9e38-4ada-4d7a-ba2d-91987244d418)"><path d="M250.42,45.82c-4.07-4.07-20.74-3.12-22.64-1.76-3.25-3.39-4.88-4.34-6.91-4.61s4.2-6.37,4.2-6.37,4.74-3.66,8-4.47a79.75,79.75,0,0,1,9.21-1.36l6.78,5.83,3.25,5.29Z" transform="translate(25.29 12.28)" style="fill:#595072;opacity:0.2;mix-blend-mode:screen"/><path d="M210.2,39.13c6.06-2.25,14.55-1,18.26,6.33s1.9,19.88-3.89,23.49-13.1,2.44-13.1,2.44l-8.4-8.31-1.27-12,5.06-8.49Z" transform="translate(25.29 12.28)" style="fill:#6a6182;opacity:0.2;mix-blend-mode:multiply"/></g><path d="M289.27,57.48l-24.94-.18s-9-5.42-14.82-4.34S238,57.12,238.13,63.26c.5,5.74,2.34,6.51,4.42,8.58,2.58,2.58,7.69,6.76,11.93,6.11,5.29-.82,7.14-3.12,7.14-3.12l26,9.21Z" transform="translate(25.29 12.28)" style="fill:#595072"/><g style="clip-path:url(#bac84c69-9ea3-49fd-b4b4-812f0637b64a)"><path d="M264.92,55.58c-1.63,4.61-4.88,18-3.12,23.31-8.13,6.24-19,4.61-19,4.61s-6.51-6.23-8.27-7.59-1.49-13.15-.95-15.86,6.37-12.06,8-12.33,10.16-2.58,10.16-2.58Z" transform="translate(25.29 12.28)" style="fill:#6a6182;opacity:0.2;mix-blend-mode:multiply"/><path d="M295,68.05l-32.94-2s-14.5-12.74-26.7-3c-8-7.19-.54-16.54,1.76-17.22s7.19-3.66,13.15-4.07,5.69-5.82,22.77.82,15.32,5,15.32,5,5.42,6.1,5.69,8.27S295,68.05,295,68.05Z" transform="translate(25.29 12.28)" style="fill:#595072;opacity:0.2;mix-blend-mode:screen"/></g><path d="M296.05,231.16c2.35,6,1.72,14.1-4.25,12.83S281,240.38,275,241.82a19,19,0,0,1-12.47-.9c-2.9-1.09-3.26-3.07-2.35-4.16-2.17-.9-1.09-2-1.09-2a2,2,0,0,1,1.81-2.53c2.35-.36,3.43,2.9,7.05,1.81s13.91-5.87,13.91-5.87l3.26.27C289.45,228.81,296.05,231.16,296.05,231.16Z" transform="translate(25.29 12.28)" style="fill:#f0d6b8"/><g style="clip-path:url(#a459781b-907e-4d0c-8916-fd73bc7f136e)"><path d="M264.15,237.21a7.42,7.42,0,0,0-3.3-.55,2,2,0,0,0-1.33.78,3.16,3.16,0,0,0-.47,1.51.24.24,0,0,1-.25.22.23.23,0,0,1-.21-.25v0a3.49,3.49,0,0,1,.65-1.67,2.26,2.26,0,0,1,1.58-.8A7.58,7.58,0,0,1,264.15,237.21Z" transform="translate(25.29 12.28)" style="fill:#cda260"/><path d="M263.61,235a7.82,7.82,0,0,0-3.67-.37,2.18,2.18,0,0,0-1.44.95,3.29,3.29,0,0,0-.44,1.7.24.24,0,1,1-.47,0v0a3.66,3.66,0,0,1,.62-1.87,2.53,2.53,0,0,1,1.68-1A8,8,0,0,1,263.61,235Z" transform="translate(25.29 12.28)" style="fill:#cda260"/><path d="M263.07,233.6a8.55,8.55,0,0,0-2.92-1,3.33,3.33,0,0,0-2.61,1.23.23.23,0,0,1-.33,0,.24.24,0,0,1,0-.33l0,0a4.76,4.76,0,0,1,1.35-.9,3.08,3.08,0,0,1,1.61-.23A8.55,8.55,0,0,1,263.07,233.6Z" transform="translate(25.29 12.28)" style="fill:#cda260"/></g><path d="M323.52,27.16c-2.06-5.68-11.64-15.51-18.62-20.34l.92-1.34c6.4,4.44,14.69,12.7,18,18.79A19.44,19.44,0,0,1,323.52,27.16Z" transform="translate(25.29 12.28)" style="fill:#6a6182"/><path d="M308.28,34.45c-.24,0-.47,0-.7,0l.08-1.62c6,.31,13.31-4.33,15.91-6.15a6,6,0,0,1,.05,2C320.73,30.6,314.32,34.45,308.28,34.45Z" transform="translate(25.29 12.28)" style="fill:#6a6182"/><g style="clip-path:url(#ac3bd115-d6db-47ef-a9d3-f7551caed286)"><path d="M217.55,50.87c-1.09,5-4.93,8.45-8.59,7.66S203.22,53,204.3,48s4.94-8.45,8.6-7.66S218.64,45.85,217.55,50.87Z" transform="translate(25.29 12.28)" style="fill:#e6c651"/><path d="M210,57.56a3.84,3.84,0,0,1-.83-.09c-3.07-.66-4.79-4.81-3.83-9.24.86-3.95,3.64-6.92,6.47-6.92a3.93,3.93,0,0,1,.84.09A4.91,4.91,0,0,1,216,44.46a10.08,10.08,0,0,1,.48,6.18C215.64,54.59,212.85,57.56,210,57.56Z" transform="translate(25.29 12.28)" style="fill:#edcf64"/></g><path d="M292.46,2.2c-10.51,17-1.83,40.55-1.83,40.55" transform="translate(25.29 12.28)" style="fill:none;stroke:#d9d9d9;stroke-miterlimit:10;stroke-width:1.0585900000000001px"/><g style="clip-path:url(#f87ab729-71c1-4a97-80f8-154b2725fdba)"><line x1="337.33" y1="17.4" x2="306.27" y2="14.53" style="fill:none;stroke:#d9d9d9;stroke-miterlimit:10;stroke-width:1.4431200000000002px"/><line x1="337.08" y1="20.29" x2="306.03" y2="17.42" style="fill:none;stroke:#d9d9d9;stroke-miterlimit:10;stroke-width:1.4431200000000002px"/><line x1="336.84" y1="23.19" x2="305.78" y2="20.32" style="fill:none;stroke:#d9d9d9;stroke-miterlimit:10;stroke-width:1.4431200000000002px"/><line x1="336.59" y1="26.09" x2="305.53" y2="23.22" style="fill:none;stroke:#d9d9d9;stroke-miterlimit:10;stroke-width:1.4431200000000002px"/><line x1="336.34" y1="28.99" x2="305.29" y2="26.12" style="fill:none;stroke:#d9d9d9;stroke-miterlimit:10;stroke-width:1.4431200000000002px"/><line x1="336.09" y1="31.89" x2="305.04" y2="29.02" style="fill:none;stroke:#d9d9d9;stroke-miterlimit:10;stroke-width:1.4431200000000002px"/><line x1="335.85" y1="34.78" x2="304.79" y2="31.91" style="fill:none;stroke:#d9d9d9;stroke-miterlimit:10;stroke-width:1.4431200000000002px"/><line x1="335.6" y1="37.68" x2="304.54" y2="34.81" style="fill:none;stroke:#d9d9d9;stroke-miterlimit:10;stroke-width:1.4431200000000002px"/><line x1="335.35" y1="40.58" x2="304.3" y2="37.71" style="fill:none;stroke:#d9d9d9;stroke-miterlimit:10;stroke-width:1.4431200000000002px"/><line x1="335.11" y1="43.48" x2="304.05" y2="40.61" style="fill:none;stroke:#d9d9d9;stroke-miterlimit:10;stroke-width:1.4431200000000002px"/><line x1="334.86" y1="46.37" x2="303.8" y2="43.51" style="fill:none;stroke:#d9d9d9;stroke-miterlimit:10;stroke-width:1.4431200000000002px"/><line x1="334.61" y1="49.27" x2="303.56" y2="46.4" style="fill:none;stroke:#d9d9d9;stroke-miterlimit:10;stroke-width:1.4431200000000002px"/><line x1="334.37" y1="52.17" x2="303.31" y2="49.3" style="fill:none;stroke:#d9d9d9;stroke-miterlimit:10;stroke-width:1.4431200000000002px"/><line x1="334.12" y1="55.07" x2="303.06" y2="52.2" style="fill:none;stroke:#d9d9d9;stroke-miterlimit:10;stroke-width:1.4431200000000002px"/></g><path d="M282.1,21.61c-.72,11.88,4.9,21.94,12.57,22.47s14.47-8.66,15.19-20.54S305,1.61,297.29,1.07,282.82,9.73,282.1,21.61Z" transform="translate(25.29 12.28)" style="fill:none;stroke:#d9d9d9;stroke-miterlimit:10;stroke-width:1.4431200000000002px"/><path d="M112.16,59.1c-1.63,6-23.31,16.27-40.66,14.64s6.5,8.68,18.43,8.68,27.65-10.3,27.65-10.3l1.08-7.05-6.5-6" transform="translate(25.29 12.28)" style="fill:#141244"/><path d="M183.37,258.27c3.25,2,5.64,3.61,8.22,4.15s2.71,2.44,2.71,2.44a3.36,3.36,0,0,1,.41,3.12c-.86,1.76-4.34,2.58-7.19,1.63s-12.87-.95-16.8,0-8.5,2.12-12.34.54c-5-2.08-3.39-9.89,6.78-13A25.66,25.66,0,0,1,183.37,258.27Z" transform="translate(25.29 12.28)" style="fill:#f0d6b8"/><g style="clip-path:url(#b7a48b16-9d92-4663-8f14-0465c86bdf51)"><path d="M191.59,265.41a9.8,9.8,0,0,0,2.46.71,4.3,4.3,0,0,1,1.25.46,1.78,1.78,0,0,1,.85,1.13h0a.24.24,0,0,1-.46.1v0a1.45,1.45,0,0,0-.59-.93,4.11,4.11,0,0,0-1.12-.52A10.32,10.32,0,0,1,191.59,265.41Z" transform="translate(25.29 12.28)" style="fill:#cda260"/><path d="M190.41,263.24a20.7,20.7,0,0,0,2.66,1,9.62,9.62,0,0,1,1.33.56,3.41,3.41,0,0,1,1.18.94.24.24,0,0,1-.05.33.25.25,0,0,1-.33-.05v0a3.08,3.08,0,0,0-1-.9,10.35,10.35,0,0,0-1.24-.64l-1.31-.56A7.6,7.6,0,0,1,190.41,263.24Z" transform="translate(25.29 12.28)" style="fill:#cda260"/></g><path d="M194.39,113.32c2.87,3.94.54,8.14-6.87,12.47s-14.64,3.62-19,.18-7.05-11.74,3.07-17.53S191.5,109.35,194.39,113.32Z" transform="translate(25.29 12.28)" style="fill:#26254a"/><path d="M261.45,82.91c5.32-1.59,38.17-11.4,47.4-14.6s48-15.14,48-15.14A14.16,14.16,0,0,1,361,51.4c2.57-.71,3.77-1.33,4.57-.65a2.25,2.25,0,0,1,.81,1.4,2.24,2.24,0,0,1,.15,1.6c-.26,1-1.59,1.21-4.1,2.13a14.17,14.17,0,0,1-4.36.93s-38.54,12.8-47.91,15.57S268.33,86.23,263.09,88s-12.69,5.12-17.59,6.56-15.8,3.78-15.8,3.78l-48.08,15.39c-1.8.58-2.35-.41-2.35-.41l-.35-1.1,0-.17-.36-1.1s-.12-1.13,1.67-1.7l48.09-15.39s10.22-4.44,15-6.1S256.13,84.49,261.45,82.91Z" transform="translate(25.29 12.28)" style="fill:#edd57e"/><g style="clip-path:url(#b1a36134-e0be-45f0-9290-56cb3c1e8016)"><path d="M227.3,78.31l-62,19.83L176,131.43l62-19.83Zm2.29,16.17a1.38,1.38,0,1,1,.84,2.62c-1.47.46-4.33,1.09-5.54.32C225.43,96.11,228.12,95,229.59,94.48Z" transform="translate(25.29 12.28)" style="fill:#f0ede8"/><polyline points="256.96 107.5 380.59 67.93 383.2 65.7" style="fill:none;stroke:#fff;stroke-miterlimit:10;stroke-width:0.332858px"/><line x1="383.82" y1="68.36" x2="380.65" y2="67.91" style="fill:none;stroke:#fff;stroke-miterlimit:10;stroke-width:0.332858px"/><polygon points="256.84 106.95 257.2 108.08 287.55 98.8 286.94 96.89 256.84 106.95" style="fill:#f0ede8"/><rect x="357.82" y="44.01" width="14.87" height="20.31" transform="translate(26.17 126.26) rotate(-17.76)" style="fill:#f0ede8"/><polygon points="345.11 75.92 345.22 75.88 345.22 75.89 346.94 75.45 347.45 77.03 349.16 78 348.33 79.78 348.83 81.36 347.18 82 347.18 82.01 347.07 82.04 346.97 82.08 346.96 82.07 345.24 82.52 344.74 80.93 343.03 79.96 343.86 78.18 343.35 76.6 345.01 75.96 345.01 75.95 345.11 75.92" style="fill:#f0ede8"/></g><path d="M230.54,95.45h0a.88.88,0,0,1,.05.15,1.42,1.42,0,0,1,0,.16h0c1.14,3.56,1.85,6.11,1.75,7.92-.63-.33-.88-1.12-1.84-2.47s-1.82-2.43-1.82-2.43a7.07,7.07,0,0,0-.4-2.36h0a.24.24,0,0,1,0-.08l0-.08h0a7.15,7.15,0,0,0-1.05-2.16s.08-1.37.07-3-.26-2.46.07-3.08C228.5,89.4,229.4,91.89,230.54,95.45Z" transform="translate(25.29 12.28)" style="fill:#edd57e"/><g style="clip-path:url(#bdda5325-9515-499a-9bf3-f31504727dc7)"><path d="M229.27,95.12a80.63,80.63,0,0,1,2.59,10.25l-3.07,1-6.09-19,3.2-1A83.63,83.63,0,0,1,229.27,95.12Z" transform="translate(25.29 12.28)" style="fill:#7284b3"/></g><path d="M159.33,162.93c6.78,2.44,12.47,1.36,19.52-1.35s13.82,2.71,19.25,11.65,2.71,10,.81,14.37c-3.25,20.61-.81,54.49-14.64,73.47-19.52,6.78-22,6.23-22,6.23L158.79,289s-13.22,13.75-61.27,20.33c-59.37,8.14-97-17.08-97-17.08s7.86-17.35,28.73-40.39,30.64-31.44,30.64-31.44-2.17-19,14.37-38.5,23.31-26.84,23.31-26.84,24.13-7.32,44.46-6.78S159.33,162.93,159.33,162.93Z" transform="translate(25.29 12.28)" style="fill:#383761"/><g style="clip-path:url(#bb123799-8a2c-432a-a7f2-ff5f74526e7c)"><path d="M203.07,168.26c.18,8.5-1.27,3.8-15.73,22.6s-35.24,54.21-33.07,73.73,19.52,18.26,21.14,18.8S191,274,191,274l14.82-31.45s5.24-26.92,4.7-32.71.36-18.25.36-18.25Z" transform="translate(25.29 12.28)" style="fill:#2e3254"/><path d="M200.53,187.24c-4.15,22.23-19.88,69.22-49.33,80.43,8.67-46.45,8.67-105,8.67-105l-15.54-2.35L161,150.19l19.33-2,27.11,15.91Z" transform="translate(25.29 12.28)" style="fill:#6a6182;opacity:0.2;mix-blend-mode:multiply"/><g style="clip-path:url(#ba5f52f3-e33a-4f02-a950-e8e6cfb1560a)"><path d="M165,150.73C132.22,167.81,62.55,216.61,55.5,224.2c-21.42-13.55-20.88-40.66-20.88-40.66L63.9,150.73l46.9-23,49.88-4.61Z" transform="translate(25.29 12.28)" style="fill:#6a6182;opacity:0.2;mix-blend-mode:multiply"/><g style="clip-path:url(#afbfcd4b-ede4-43f4-baea-6acda30c5e76)"><path d="M159.33,114.68C114.87,151.82,71.77,197.9,58.48,236.13c-25.48-9.22-22-29-22-29l11.66-33.34s32-37.41,35.51-40.67S159.33,114.68,159.33,114.68Z" transform="translate(25.29 12.28)" style="fill:#22264a"/></g><path d="M169.36,165.64c-26.3,16-134.19,131.76-137.17,159.41,68,24.4,124.7,1.62,124.7,1.62s15.72-15.45,16-27.65,8.14-45.27,6.24-59.1.27-42-2.71-49.06S169.36,165.64,169.36,165.64Z" transform="translate(25.29 12.28)" style="fill:#6a6182;opacity:0.2;mix-blend-mode:multiply"/><path d="M161.77,161C142.52,174.32,14,281.94,4.53,313.66c-30.9,1.9-29.82-30.09-29.82-30.09s10.85-29.82,23-40.12,63.16-48.26,63.16-48.26l54.22-34.7,38.77-16.81,11.65.82Z" transform="translate(25.29 12.28)" style="fill:#6a6182;opacity:0.2;mix-blend-mode:multiply"/><path d="M166.65,188.42c-16.54,22.23-54.76,81.87-41.48,128C171,328.3,181,280.32,181,280.32l1.08-25.22Z" transform="translate(25.29 12.28)" style="fill:#2d2c4f"/><path d="M1.28,296.85c-3-5.15,3-7.05,12.74-11.11s29.82-17.89,43.92,1.08,29.82,24.94,56.66,21.42C91,326.13,60.65,329.38,56.85,329.38s-35-4.33-35-4.33L6.43,308.24Z" transform="translate(25.29 12.28)" style="fill:#22264a"/></g><path d="M155,159.41c4.52,12.47,30.18,17.17,44.46,13-2.89-18.79-13.37-24.58-13.37-24.58l-19.52,2.89Z" transform="translate(25.29 12.28)" style="fill:#383761"/><path d="M159.69,147.12c6.33,13,13.37,22.23,15.9,43.19s6,26.75,3.44,27.66-6.15-3.08-12.47-22.41-11.75-46.45-11.75-46.45Z" transform="translate(25.29 12.28)" style="fill:#1e1f3a"/></g><path d="M162.58,152.9c-4.34,6.51-13.28,40.67-14.37,51.78s-2.16,11.93-6.77,11.93H126c-6.5,0-7.32-1.9-5.69-14.64s5.15-37.95,10.57-47.17,9.76-11.12,9.76-11.12Z" transform="translate(25.29 12.28)" style="fill:#383761"/><path d="M136,151.28c-5.16,5.42-20.16,27.2-26.39,33.7a96.78,96.78,0,0,0-12.47,8.41,26.69,26.69,0,0,1-4.82-.67c-4.31-1.05-3.9-3.08-1.33-7.56,5.15-8.94,28.74-40.93,28.74-40.93l22-1.36Z" transform="translate(25.29 12.28)" style="fill:#1e1f3a"/><path d="M133.58,139.89c-20.88,16.27-53.41,36.33-58,40.66-7.09,7.14-12.38,18.71-14.1,25.21-8.94-6.23-16-17.61-10.84-22.22s22-6.51,31.72-14.64,15.72-21.69,15.72-21.69Z" transform="translate(25.29 12.28)" style="fill:#383761"/><g style="clip-path:url(#fa0965d2-9c70-4f59-87a5-531fc6567f84)"><path d="M114.87,157.78c-17.08,4.88-29.82,17.62-45,21.42s-24.67,5.69-21.42,17.35,12.2,22.23,12.2,22.23l23.86-6.51L109.45,189Z" transform="translate(25.29 12.28)" style="fill:#1e1f3a"/></g><path d="M159.51,159.41c-2.35-4.52-40.48-13.19-65.79-3.8a107.82,107.82,0,0,1,5.61-24s31.62-14.64,63.61,1.08C164.57,150.19,159.51,159.41,159.51,159.41Z" transform="translate(25.29 12.28)" style="fill:#22264a"/><path d="M170,133c-.84,5.48-14.09.18-14.09.18s-25.31-8.31-36.51-2-21.15,11.93-27.83,5.61-4.88-25.3-4.7-41.57.36-17.89,19.33-25.12c8-2.35,7-7.41,1.63-12.29S92.1,34.89,101,25.67s25.49-10.3,33.62,5.24,6.51,23.13,5.06,30.18c21.87,4,26,5.6,35.24,11.93S198.73,83.5,198.73,83.5s10.48-4.15,6.69,12.65-5.43,18.26-7,19.16-11-.9-18.8-.9-10.84,1.62-10.12,6.68A48.41,48.41,0,0,1,170,133Z" transform="translate(25.29 12.28)" style="fill:#383761"/><g style="clip-path:url(#b9cd52e7-62b0-49fc-a133-04138bdcc01b)"><path d="M103.3,70.67c5.61,1.63,53.32,34.7,67.6,46.63" transform="translate(25.29 12.28)" style="fill:none;stroke:#6a6182;stroke-miterlimit:10;stroke-width:2.16875px"/><path d="M146.86,61.81c-10.3,4.16-51.51,36-61.45,56.76" transform="translate(25.29 12.28)" style="fill:none;stroke:#6a6182;stroke-miterlimit:10;stroke-width:2.16875px"/><path d="M96.44,20.61l.49-.08C96.85,20.21,96.44,20.61,96.44,20.61Z" transform="translate(25.29 12.28)" style="fill:none;stroke:#6a6182;stroke-miterlimit:10;stroke-width:0.271094px"/><path d="M203.79,104.65c-2.35,4.34-6.69,1.26-15-12.11S171,80.11,176.14,86.76c3.79,4.88,4.88,7,9.76,15.54a47.56,47.56,0,0,0,9.55,12.17,11.18,11.18,0,0,1-9.37-6.21c-4-7.59-16.81-1.62-26.57,9.4s-24.58,6.69-21,2c2.34-3,6-5.76,5.38-6.73,6-2.15,12.69-2.6,15.77-7.37,3.62-5.6,9.4-10.3,15.54-8.49s4.16-4.7-1.8-9.4-11.21-.9-14.64,7.23-3.08,9.76-7.23,11.75c-6.12,2.92-11,4.89-14.75,6.77-11,2.65-27.43,12.62-34.23,9.31-7-3.43-8.49-34.7,8.31-45.18s54.58-8.68,70.67-4.16L165.84,55.67S133.12,17,132.58,15.91s-31.38,3.93-35.65,4.62c.16.64-1.07,4.18-9.89,19.78-13.2,23.31-5.79,24.76-5.79,24.76L69.51,94.17l-.91,31.08,9.76,23.13,20.43,8.68,32.71-4.7s55.48-4,58.73-6,16.3-21.48,13.2-35.19C204.75,106.88,205.25,102,203.79,104.65Z" transform="translate(25.29 12.28)" style="fill:#6a6182;opacity:0.21;mix-blend-mode:multiply"/><path d="M117,77c9.33-2.7,23,6.87,28,15.36s2.53,8.67-2.89,6.87-11,2-5.6,4.15,3.79,4.52-8.32,8.68-22.59,13.73-23.49-4.7S107.64,79.71,117,77Z" transform="translate(25.29 12.28)" style="fill:#6a6182;opacity:0.21;mix-blend-mode:multiply"/><path d="M105.92,62.63c9.22-4.7,14.1-7.59,34.7-5.15,8.32-13.38,6.78-21.69,4.79-23.86s-6.14-11.2-9.58-13.55S118.3,11.21,116,11.21,99.69,12.66,95.89,17,84.51,40,85.05,42.3s4.16,5.6,6.51,9.58S105.92,62.63,105.92,62.63Z" transform="translate(25.29 12.28)" style="fill:#6a6182;opacity:0.47000000000000003;mix-blend-mode:multiply"/><path d="M120.38,87.12c.36,6.14-16.81,28-28.19,35.24-7.23-3.62-7.77-9.94-7.77-9.94s25.48-22,30.36-24.94C118.76,86,120.38,87.12,120.38,87.12Z" transform="translate(25.29 12.28)" style="fill:#fffbf2;stroke:#6a6182;stroke-miterlimit:10;stroke-width:0.271094px"/><path d="M114.78,78.44c3.12-2.84,7.59-1.08,9.76,2.17s-2.53,8-4,8.68-5.78.36-6.5-1.63S112.79,80.25,114.78,78.44Z" transform="translate(25.29 12.28)" style="fill:#f0ede8"/></g><path d="M167.46,161.76c-1.81,4.66-9.58,5.78-9.76,0s.73-11.21-2.53-12.65-.54-3.62.54-13,1.63-11,5.43-13,6.14-7,9.76-5.78,1.62,14.28.36,27.11S168.73,158.5,167.46,161.76Z" transform="translate(25.29 12.28)" style="fill:#212121"/><g style="clip-path:url(#bfca2bc8-1145-4cc7-870e-3bead5952857)"><path d="M162.76,118.2c4.16-2.71,6.51,3.26,5.06,17.89s-3.07,29.28-10.3,30c4.88,8,21,1.08,20.6,0S180.84,124,180.84,124s-5.07-14.28-8-14.82-8.13,1.62-8.13,1.62Z" transform="translate(25.29 12.28)"/><path d="M162.91,164.06c-1.77,0-2.7-.79-2.76-2.35,0-1.17,0-2.35,0-3.48.05-4.64.09-9-4.18-10.61-.91-.33-.94-.35,0-3.27a48.93,48.93,0,0,0,1.85-8.07c1.3-9.35,1.9-10.19,5.49-11.76,1.94-.84,3.07-3,4.49-4.15a8.16,8.16,0,0,1,5-1.65,2.31,2.31,0,0,1,.72.12s1.19.49,1.17,5.67a132.79,132.79,0,0,1-1.36,14.39c-.23,1.77-.46,3.56-.67,5.35-1.27,10.7-2.53,13.15-3.75,15.52-.23.45-.46.9-.69,1.4C167.23,163.05,164.78,164.06,162.91,164.06Z" transform="translate(25.29 12.28)"/></g><path d="M201.76,87.43c3.71-4.73,10.84-3.52,21.28,5.83S235.18,108.92,230,114c-4.75,4.61-9.9,7.46-15.59,2.44s-6.91-7.73-6.91-7.73-2.44,1.36-6.24-1.62C196.38,103.29,196.33,94.35,201.76,87.43Z" transform="translate(25.29 12.28)" style="fill:#595072"/><g style="clip-path:url(#fc89e260-752a-4d19-91e6-eb65f2fd8b91)"><path d="M200.53,84.86c8,1,23.73,14.23,26.44,23s-3.8,12.07-9.22,11.79c7.45,6.92,22.5,3.66,22.64,2.58s3.38-9.22,3.38-9.22l-.27-12.33s-.4-8.54-2.16-10.17-11.93-8.81-11.93-8.81S213.14,77.27,211,77.27,200.53,84.86,200.53,84.86Z" transform="translate(25.29 12.28)" style="fill:#595072;opacity:0.2;mix-blend-mode:screen"/><path d="M200.81,85.26c6.5-1.49,14.06.33,10,9.22-5.29,11.66-16.13,17.49-18,8.41S200.81,85.26,200.81,85.26Z" transform="translate(25.29 12.28)" style="fill:#6a6182;opacity:0.75;mix-blend-mode:multiply"/><g style="clip-path:url(#b5f7c0ac-ab8c-4a83-a59e-2063469a7a15)"><path d="M195,87.84c6.37-.81,15.58,3.25,18.3,10.71-2.31,10.84-14.64,16.26-15.86,16.13s-3-4.2-4.88-6.1-3-8.81-3.53-10.17S195,87.84,195,87.84Z" transform="translate(25.29 12.28)" style="fill:#efd5b8"/></g></g><path d="M122.28,62c-3.87-3.4-3.79-7.59-2.71-15s5.78-23.86-12.83-25.85c-5.42,3.62-9.4,18.07-3.8,27.29S114.42,65,110.62,67.87c-.72-3.43-2.08-6.06-7.32-12S88.66,41.75,91,32.18s15-16.45,25.49-17.9,22.77,7.77,27.11,24.58c3.07,12.83-1.45,20.79-1.45,20.79a150.23,150.23,0,0,0,17.35-5.79c8.86-3.61,15-8.85,16.81-6.32s3.43,4.7,4.15,5.78.73,1.08-4.88,5.24a47,47,0,0,1-20.24,8.5C144,69,129.69,68.5,122.28,62Z" transform="translate(25.29 12.28)" style="fill:#292854"/><g style="clip-path:url(#a05850ff-7ea4-4ed8-981b-345d0077ea34)"><path d="M137.1,17.18c8.31,10.66,6,22.77-7.59,21.86s-14.82-.18-22.23-4.7,1.44-12.29,1.44-12.29S103.66,18.62,91,24.22C87.22,11.75,103.12.37,103.12.37s31.09-.91,33.62.36S137.1,17.18,137.1,17.18Z" transform="translate(25.29 12.28)" style="fill:#595072;opacity:0.2;mix-blend-mode:screen"/><path d="M108.36,21.69C104,20.07,94.81,20.25,88.3,33.8s5.79,47.53,5.79,47.53l13.37-2.71,9.4-7.77.9-9.76-3.61-13.37Z" transform="translate(25.29 12.28)" style="fill:#6a6182;opacity:0.55;mix-blend-mode:multiply"/><path d="M176.86,44.28c-11.75,5.25-29.46,19-56,17-2.17,17.9,21.51,16.09,21.51,16.09l17.17-.55s18.61-6,21-7.77,8.14-8.67,8-9.76-.37-6.5-2.17-8S176.86,44.28,176.86,44.28Z" transform="translate(25.29 12.28)" style="fill:#6a6182;opacity:0.55;mix-blend-mode:multiply"/></g><path d="M139.74,57.9A145.68,145.68,0,0,1,113.09,55L113,53.46c19-7,21.2-20.48,20.65-32.94a3.74,3.74,0,0,1,1.69,1.9c.18,11.33-2.51,24.27-19.13,31.51,17.91,3.12,27.61,2.21,27.71,2.2s-.36,1.62-.55,1.67C142.63,57.84,141.43,57.9,139.74,57.9Z" transform="translate(25.29 12.28)" style="fill:#6a6182"/><path d="M109.33,63.82l-1-1.3C110,61.26,111,58,111.46,55.8c-1.76.77-4.5,1.93-7.1,1.74-.26,0-1.42-2.1-1.42-2.1,2.5,1.32,8.29-1,10.1-2l.29,1C113.29,54.79,112.46,61.47,109.33,63.82Z" transform="translate(25.29 12.28)" style="fill:#6a6182"/><path d="M112.84,54.5c-11.57,8.85-34.66,47.62-40.62,77.8" transform="translate(25.29 12.28)" style="fill:none;stroke:#6a6182;stroke-miterlimit:10;stroke-width:1.6265600000000002px"/><path d="M61,107.54C72.4,83.32,111.62,55,111.62,55" transform="translate(25.29 12.28)" style="fill:none;stroke:#6a6182;stroke-miterlimit:10;stroke-width:1.6265600000000002px"/><path d="M22.16,279.32c-2.72,2.17-3.44,4.52-7.06,4.43-6.15,0-11.69-.32-11.69,5.92s-.07,10.73-1.82,15.05-2.18,8.13-.67,9.69c0,3.76.13,5.95,2.28,6.25a1.86,1.86,0,0,0,.73,2.1,3.19,3.19,0,0,0,1.59.39s-.06,1.67,1.79,1.21a1.79,1.79,0,0,0,3.42-.31c1.38,1.78,4.28,1.08,3.6-2.14s.36-8.59,1.23-11.28,3.37-9.73,4.74-12.94,23-20.27,23-20.27-.54-.72-7-.27A118.39,118.39,0,0,0,22.16,279.32Z" transform="translate(25.29 12.28)" style="fill:#e6ba87"/><g style="clip-path:url(#f6a47e96-c459-4835-ad58-119a224b72cf)"><path d="M11.49,317.25a39.31,39.31,0,0,1-.27,4.85,16.78,16.78,0,0,1-.46,2.41,4.65,4.65,0,0,1-1.19,2.22.23.23,0,1,1-.31-.34h0a4.39,4.39,0,0,0,1.14-2,16.51,16.51,0,0,0,.57-2.33A38.78,38.78,0,0,0,11.49,317.25Z" transform="translate(25.29 12.28)" style="fill:#cda260"/><path d="M9.21,318.92a9.73,9.73,0,0,1-.56,3.58,8,8,0,0,1-.8,1.67,3,3,0,0,1-1.46,1.25.24.24,0,0,1-.3-.15.23.23,0,0,1,.15-.29h0a2.53,2.53,0,0,0,1.3-1,7.47,7.47,0,0,0,.87-1.54A9.74,9.74,0,0,0,9.21,318.92Z" transform="translate(25.29 12.28)" style="fill:#cda260"/><path d="M6.83,318.19a13.79,13.79,0,0,1-.34,3.56,3.68,3.68,0,0,1-.88,1.62,2.74,2.74,0,0,1-1.7.8.23.23,0,0,1-.06-.46h0a2.42,2.42,0,0,0,1.5-.59,3.46,3.46,0,0,0,.9-1.44A14,14,0,0,0,6.83,318.19Z" transform="translate(25.29 12.28)" style="fill:#cda260"/><path d="M4.34,316.53a7.18,7.18,0,0,1-.3,2.83,4.88,4.88,0,0,1-.64,1.32,2.29,2.29,0,0,1-1.22.92.23.23,0,0,1-.29-.16.23.23,0,0,1,.16-.29h0a1.84,1.84,0,0,0,1.06-.68,4.46,4.46,0,0,0,.69-1.18A7.12,7.12,0,0,0,4.34,316.53Z" transform="translate(25.29 12.28)" style="fill:#cda260"/></g><path d="M156.89,148.57c-10.3,3.25-39.76,3-62.26,0" transform="translate(25.29 12.28)" style="fill:none;stroke:#6a6182;stroke-linecap:round;stroke-linejoin:round;stroke-width:1.87654px"/><path d="M111.91,150.1c3.28-4.65,11.34-5.92,12.35-2.14C125.82,153.82,111.91,150.1,111.91,150.1Z" transform="translate(25.29 12.28)" style="fill:none;stroke:#6a6182;stroke-linecap:round;stroke-linejoin:round;stroke-width:1.6265600000000002px"/><path d="M121.74,158.29c-6.8-1.51-10.33-7.56-10.33-7.56" transform="translate(25.29 12.28)" style="fill:none;stroke:#6a6182;stroke-linecap:round;stroke-linejoin:round;stroke-width:1.6265600000000002px"/><path d="M111.92,150.1c-3.28-4.65-11.34-5.92-12.35-2.14C98,153.82,111.92,150.1,111.92,150.1Z" transform="translate(25.29 12.28)" style="fill:none;stroke:#6a6182;stroke-linecap:round;stroke-linejoin:round;stroke-width:1.6265600000000002px"/><path d="M102.09,158.29c6.8-1.51,10.33-7.56,10.33-7.56" transform="translate(25.29 12.28)" style="fill:none;stroke:#6a6182;stroke-linecap:round;stroke-linejoin:round;stroke-width:1.6265600000000002px"/></g></g></svg>